<svg xmlns="http://www.w3.org/2000/svg" width="1200" height="850" viewBox="0 0 1200 850">
  <path d="M 902.0 200.0 L 901.0 201.0 L 893.0 201.0 L 892.0 202.0 L 886.0 202.0 L 885.0 203.0 L 881.0 203.0 L 880.0 204.0 L 877.0 204.0 L 876.0 205.0 L 873.0 205.0 L 872.0 206.0 L 870.0 206.0 L 869.0 207.0 L 867.0 207.0 L 866.0 208.0 L 864.0 208.0 L 863.0 209.0 L 861.0 209.0 L 860.0 210.0 L 859.0 210.0 L 858.0 211.0 L 856.0 211.0 L 855.0 212.0 L 854.0 212.0 L 853.0 213.0 L 852.0 213.0 L 851.0 214.0 L 849.0 214.0 L 847.0 216.0 L 846.0 216.0 L 845.0 217.0 L 844.0 217.0 L 843.0 218.0 L 842.0 218.0 L 841.0 219.0 L 840.0 219.0 L 839.0 220.0 L 838.0 220.0 L 836.0 222.0 L 835.0 222.0 L 833.0 224.0 L 832.0 224.0 L 829.0 227.0 L 828.0 227.0 L 826.0 229.0 L 825.0 229.0 L 821.0 233.0 L 820.0 233.0 L 803.0 250.0 L 803.0 251.0 L 799.0 255.0 L 799.0 256.0 L 795.0 260.0 L 795.0 261.0 L 793.0 263.0 L 793.0 264.0 L 791.0 266.0 L 791.0 267.0 L 789.0 269.0 L 789.0 270.0 L 787.0 272.0 L 787.0 273.0 L 785.0 275.0 L 785.0 276.0 L 784.0 277.0 L 784.0 278.0 L 783.0 279.0 L 783.0 280.0 L 782.0 281.0 L 782.0 282.0 L 780.0 284.0 L 780.0 285.0 L 779.0 286.0 L 779.0 287.0 L 778.0 288.0 L 778.0 289.0 L 777.0 290.0 L 777.0 291.0 L 776.0 292.0 L 776.0 293.0 L 775.0 294.0 L 775.0 296.0 L 774.0 297.0 L 774.0 298.0 L 773.0 299.0 L 773.0 300.0 L 772.0 301.0 L 772.0 302.0 L 771.0 303.0 L 771.0 305.0 L 770.0 306.0 L 770.0 307.0 L 769.0 308.0 L 769.0 310.0 L 768.0 311.0 L 768.0 313.0 L 767.0 314.0 L 767.0 315.0 L 766.0 316.0 L 766.0 318.0 L 765.0 319.0 L 765.0 321.0 L 764.0 322.0 L 764.0 324.0 L 763.0 325.0 L 763.0 327.0 L 762.0 328.0 L 762.0 330.0 L 761.0 331.0 L 761.0 334.0 L 760.0 335.0 L 760.0 337.0 L 759.0 338.0 L 759.0 341.0 L 758.0 342.0 L 758.0 345.0 L 757.0 346.0 L 757.0 349.0 L 756.0 350.0 L 756.0 354.0 L 755.0 355.0 L 755.0 358.0 L 754.0 359.0 L 754.0 364.0 L 753.0 365.0 L 753.0 368.0 L 752.0 369.0 L 752.0 373.0 L 751.0 374.0 L 751.0 378.0 L 750.0 379.0 L 750.0 382.0 L 749.0 383.0 L 749.0 387.0 L 748.0 388.0 L 748.0 392.0 L 747.0 393.0 L 747.0 396.0 L 746.0 397.0 L 746.0 401.0 L 745.0 402.0 L 745.0 406.0 L 744.0 407.0 L 744.0 410.0 L 743.0 411.0 L 743.0 415.0 L 742.0 416.0 L 742.0 426.0 L 743.0 427.0 L 743.0 430.0 L 744.0 431.0 L 744.0 432.0 L 745.0 433.0 L 745.0 434.0 L 747.0 436.0 L 747.0 437.0 L 750.0 440.0 L 751.0 440.0 L 755.0 444.0 L 756.0 444.0 L 760.0 448.0 L 761.0 448.0 L 763.0 450.0 L 764.0 450.0 L 767.0 453.0 L 768.0 453.0 L 770.0 455.0 L 771.0 455.0 L 773.0 457.0 L 774.0 457.0 L 776.0 459.0 L 777.0 459.0 L 779.0 461.0 L 780.0 461.0 L 782.0 463.0 L 783.0 463.0 L 785.0 465.0 L 786.0 465.0 L 787.0 466.0 L 788.0 466.0 L 790.0 468.0 L 791.0 468.0 L 792.0 469.0 L 793.0 469.0 L 794.0 470.0 L 795.0 470.0 L 797.0 472.0 L 798.0 472.0 L 799.0 473.0 L 800.0 473.0 L 801.0 474.0 L 802.0 474.0 L 803.0 475.0 L 804.0 475.0 L 805.0 476.0 L 806.0 476.0 L 807.0 477.0 L 808.0 477.0 L 809.0 478.0 L 810.0 478.0 L 811.0 479.0 L 812.0 479.0 L 813.0 480.0 L 814.0 480.0 L 815.0 481.0 L 816.0 481.0 L 817.0 482.0 L 818.0 482.0 L 819.0 483.0 L 820.0 483.0 L 821.0 484.0 L 823.0 484.0 L 824.0 485.0 L 825.0 485.0 L 826.0 486.0 L 828.0 486.0 L 829.0 487.0 L 830.0 487.0 L 831.0 488.0 L 833.0 488.0 L 834.0 489.0 L 836.0 489.0 L 837.0 490.0 L 838.0 490.0 L 839.0 491.0 L 841.0 491.0 L 842.0 492.0 L 844.0 492.0 L 845.0 493.0 L 847.0 493.0 L 848.0 494.0 L 850.0 494.0 L 851.0 495.0 L 854.0 495.0 L 855.0 496.0 L 858.0 496.0 L 859.0 497.0 L 862.0 497.0 L 863.0 498.0 L 866.0 498.0 L 867.0 499.0 L 871.0 499.0 L 872.0 500.0 L 877.0 500.0 L 878.0 501.0 L 883.0 501.0 L 884.0 502.0 L 890.0 502.0 L 891.0 503.0 L 904.0 503.0 L 905.0 504.0 L 921.0 504.0 L 922.0 503.0 L 933.0 503.0 L 934.0 502.0 L 939.0 502.0 L 940.0 501.0 L 945.0 501.0 L 946.0 500.0 L 949.0 500.0 L 950.0 499.0 L 953.0 499.0 L 954.0 498.0 L 957.0 498.0 L 958.0 497.0 L 961.0 497.0 L 962.0 496.0 L 964.0 496.0 L 965.0 495.0 L 966.0 495.0 L 967.0 494.0 L 969.0 494.0 L 970.0 493.0 L 972.0 493.0 L 973.0 492.0 L 974.0 492.0 L 975.0 491.0 L 977.0 491.0 L 978.0 490.0 L 979.0 490.0 L 980.0 489.0 L 981.0 489.0 L 982.0 488.0 L 983.0 488.0 L 984.0 487.0 L 985.0 487.0 L 986.0 486.0 L 987.0 486.0 L 988.0 485.0 L 989.0 485.0 L 991.0 483.0 L 992.0 483.0 L 993.0 482.0 L 994.0 482.0 L 996.0 480.0 L 997.0 480.0 L 998.0 479.0 L 999.0 479.0 L 1001.0 477.0 L 1002.0 477.0 L 1005.0 474.0 L 1006.0 474.0 L 1009.0 471.0 L 1010.0 471.0 L 1014.0 467.0 L 1015.0 467.0 L 1033.0 449.0 L 1033.0 448.0 L 1036.0 445.0 L 1036.0 444.0 L 1040.0 440.0 L 1040.0 439.0 L 1042.0 437.0 L 1042.0 436.0 L 1044.0 434.0 L 1044.0 433.0 L 1046.0 431.0 L 1046.0 430.0 L 1047.0 429.0 L 1047.0 428.0 L 1049.0 426.0 L 1049.0 425.0 L 1050.0 424.0 L 1050.0 423.0 L 1051.0 422.0 L 1051.0 421.0 L 1052.0 420.0 L 1052.0 419.0 L 1053.0 418.0 L 1053.0 417.0 L 1054.0 416.0 L 1054.0 415.0 L 1055.0 414.0 L 1055.0 413.0 L 1056.0 412.0 L 1056.0 410.0 L 1057.0 409.0 L 1057.0 408.0 L 1058.0 407.0 L 1058.0 405.0 L 1059.0 404.0 L 1059.0 403.0 L 1060.0 402.0 L 1060.0 400.0 L 1061.0 399.0 L 1061.0 396.0 L 1062.0 395.0 L 1062.0 393.0 L 1063.0 392.0 L 1063.0 389.0 L 1064.0 388.0 L 1064.0 385.0 L 1065.0 384.0 L 1065.0 380.0 L 1066.0 379.0 L 1066.0 375.0 L 1067.0 374.0 L 1067.0 366.0 L 1068.0 365.0 L 1068.0 339.0 L 1067.0 338.0 L 1067.0 330.0 L 1066.0 329.0 L 1066.0 324.0 L 1065.0 323.0 L 1065.0 319.0 L 1064.0 318.0 L 1064.0 315.0 L 1063.0 314.0 L 1063.0 312.0 L 1062.0 311.0 L 1062.0 308.0 L 1061.0 307.0 L 1061.0 305.0 L 1060.0 304.0 L 1060.0 302.0 L 1059.0 301.0 L 1059.0 299.0 L 1058.0 298.0 L 1058.0 297.0 L 1057.0 296.0 L 1057.0 294.0 L 1056.0 293.0 L 1056.0 292.0 L 1055.0 291.0 L 1055.0 290.0 L 1054.0 289.0 L 1054.0 288.0 L 1053.0 287.0 L 1053.0 286.0 L 1052.0 285.0 L 1052.0 284.0 L 1051.0 283.0 L 1051.0 282.0 L 1050.0 281.0 L 1050.0 280.0 L 1049.0 279.0 L 1049.0 278.0 L 1048.0 277.0 L 1048.0 276.0 L 1046.0 274.0 L 1046.0 273.0 L 1044.0 271.0 L 1044.0 270.0 L 1043.0 269.0 L 1043.0 268.0 L 1040.0 265.0 L 1040.0 264.0 L 1038.0 262.0 L 1038.0 261.0 L 1034.0 257.0 L 1034.0 256.0 L 1025.0 247.0 L 1025.0 246.0 L 1023.0 244.0 L 1022.0 244.0 L 1013.0 235.0 L 1012.0 235.0 L 1009.0 232.0 L 1008.0 232.0 L 1005.0 229.0 L 1004.0 229.0 L 1002.0 227.0 L 1001.0 227.0 L 999.0 225.0 L 998.0 225.0 L 996.0 223.0 L 995.0 223.0 L 993.0 221.0 L 992.0 221.0 L 991.0 220.0 L 990.0 220.0 L 989.0 219.0 L 988.0 219.0 L 987.0 218.0 L 986.0 218.0 L 985.0 217.0 L 984.0 217.0 L 983.0 216.0 L 982.0 216.0 L 981.0 215.0 L 980.0 215.0 L 979.0 214.0 L 978.0 214.0 L 977.0 213.0 L 976.0 213.0 L 975.0 212.0 L 973.0 212.0 L 972.0 211.0 L 971.0 211.0 L 970.0 210.0 L 968.0 210.0 L 967.0 209.0 L 965.0 209.0 L 964.0 208.0 L 962.0 208.0 L 961.0 207.0 L 959.0 207.0 L 958.0 206.0 L 955.0 206.0 L 954.0 205.0 L 952.0 205.0 L 951.0 204.0 L 947.0 204.0 L 946.0 203.0 L 942.0 203.0 L 941.0 202.0 L 936.0 202.0 L 935.0 201.0 L 926.0 201.0 L 925.0 200.0 Z M 899.0 251.0 L 900.0 250.0 L 927.0 250.0 L 928.0 251.0 L 933.0 251.0 L 934.0 252.0 L 938.0 252.0 L 939.0 253.0 L 942.0 253.0 L 943.0 254.0 L 945.0 254.0 L 946.0 255.0 L 948.0 255.0 L 949.0 256.0 L 951.0 256.0 L 952.0 257.0 L 954.0 257.0 L 955.0 258.0 L 956.0 258.0 L 957.0 259.0 L 958.0 259.0 L 959.0 260.0 L 960.0 260.0 L 961.0 261.0 L 962.0 261.0 L 963.0 262.0 L 964.0 262.0 L 965.0 263.0 L 966.0 263.0 L 967.0 264.0 L 968.0 264.0 L 970.0 266.0 L 971.0 266.0 L 973.0 268.0 L 974.0 268.0 L 976.0 270.0 L 977.0 270.0 L 981.0 274.0 L 982.0 274.0 L 995.0 287.0 L 995.0 288.0 L 999.0 292.0 L 999.0 293.0 L 1001.0 295.0 L 1001.0 296.0 L 1003.0 298.0 L 1003.0 299.0 L 1005.0 301.0 L 1005.0 302.0 L 1006.0 303.0 L 1006.0 304.0 L 1007.0 305.0 L 1007.0 306.0 L 1008.0 307.0 L 1008.0 308.0 L 1009.0 309.0 L 1009.0 310.0 L 1010.0 311.0 L 1010.0 312.0 L 1011.0 313.0 L 1011.0 315.0 L 1012.0 316.0 L 1012.0 317.0 L 1013.0 318.0 L 1013.0 320.0 L 1014.0 321.0 L 1014.0 323.0 L 1015.0 324.0 L 1015.0 327.0 L 1016.0 328.0 L 1016.0 331.0 L 1017.0 332.0 L 1017.0 336.0 L 1018.0 337.0 L 1018.0 348.0 L 1019.0 349.0 L 1019.0 355.0 L 1018.0 356.0 L 1018.0 366.0 L 1017.0 367.0 L 1017.0 372.0 L 1016.0 373.0 L 1016.0 376.0 L 1015.0 377.0 L 1015.0 379.0 L 1014.0 380.0 L 1014.0 383.0 L 1013.0 384.0 L 1013.0 386.0 L 1012.0 387.0 L 1012.0 388.0 L 1011.0 389.0 L 1011.0 391.0 L 1010.0 392.0 L 1010.0 393.0 L 1009.0 394.0 L 1009.0 395.0 L 1008.0 396.0 L 1008.0 397.0 L 1007.0 398.0 L 1007.0 399.0 L 1006.0 400.0 L 1006.0 401.0 L 1004.0 403.0 L 1004.0 404.0 L 1003.0 405.0 L 1003.0 406.0 L 1001.0 408.0 L 1001.0 409.0 L 998.0 412.0 L 998.0 413.0 L 994.0 417.0 L 994.0 418.0 L 984.0 428.0 L 983.0 428.0 L 979.0 432.0 L 978.0 432.0 L 975.0 435.0 L 974.0 435.0 L 972.0 437.0 L 971.0 437.0 L 969.0 439.0 L 968.0 439.0 L 967.0 440.0 L 966.0 440.0 L 964.0 442.0 L 963.0 442.0 L 962.0 443.0 L 961.0 443.0 L 960.0 444.0 L 959.0 444.0 L 958.0 445.0 L 956.0 445.0 L 955.0 446.0 L 954.0 446.0 L 953.0 447.0 L 952.0 447.0 L 951.0 448.0 L 949.0 448.0 L 948.0 449.0 L 945.0 449.0 L 944.0 450.0 L 942.0 450.0 L 941.0 451.0 L 938.0 451.0 L 937.0 452.0 L 933.0 452.0 L 932.0 453.0 L 926.0 453.0 L 925.0 454.0 L 900.0 454.0 L 899.0 453.0 L 891.0 453.0 L 890.0 452.0 L 885.0 452.0 L 884.0 451.0 L 880.0 451.0 L 879.0 450.0 L 875.0 450.0 L 874.0 449.0 L 871.0 449.0 L 870.0 448.0 L 867.0 448.0 L 866.0 447.0 L 864.0 447.0 L 863.0 446.0 L 861.0 446.0 L 860.0 445.0 L 858.0 445.0 L 857.0 444.0 L 855.0 444.0 L 854.0 443.0 L 852.0 443.0 L 851.0 442.0 L 850.0 442.0 L 849.0 441.0 L 847.0 441.0 L 846.0 440.0 L 845.0 440.0 L 844.0 439.0 L 842.0 439.0 L 841.0 438.0 L 840.0 438.0 L 839.0 437.0 L 838.0 437.0 L 837.0 436.0 L 836.0 436.0 L 835.0 435.0 L 834.0 435.0 L 833.0 434.0 L 832.0 434.0 L 831.0 433.0 L 830.0 433.0 L 829.0 432.0 L 828.0 432.0 L 827.0 431.0 L 826.0 431.0 L 825.0 430.0 L 824.0 430.0 L 823.0 429.0 L 822.0 429.0 L 821.0 428.0 L 820.0 428.0 L 818.0 426.0 L 817.0 426.0 L 816.0 425.0 L 815.0 425.0 L 813.0 423.0 L 812.0 423.0 L 811.0 422.0 L 810.0 422.0 L 808.0 420.0 L 807.0 420.0 L 805.0 418.0 L 804.0 418.0 L 802.0 416.0 L 801.0 416.0 L 799.0 414.0 L 798.0 414.0 L 795.0 411.0 L 795.0 405.0 L 796.0 404.0 L 796.0 400.0 L 797.0 399.0 L 797.0 396.0 L 798.0 395.0 L 798.0 391.0 L 799.0 390.0 L 799.0 387.0 L 800.0 386.0 L 800.0 382.0 L 801.0 381.0 L 801.0 377.0 L 802.0 376.0 L 802.0 372.0 L 803.0 371.0 L 803.0 367.0 L 804.0 366.0 L 804.0 363.0 L 805.0 362.0 L 805.0 358.0 L 806.0 357.0 L 806.0 354.0 L 807.0 353.0 L 807.0 350.0 L 808.0 349.0 L 808.0 347.0 L 809.0 346.0 L 809.0 343.0 L 810.0 342.0 L 810.0 340.0 L 811.0 339.0 L 811.0 337.0 L 812.0 336.0 L 812.0 334.0 L 813.0 333.0 L 813.0 331.0 L 814.0 330.0 L 814.0 329.0 L 815.0 328.0 L 815.0 326.0 L 816.0 325.0 L 816.0 324.0 L 817.0 323.0 L 817.0 321.0 L 818.0 320.0 L 818.0 319.0 L 819.0 318.0 L 819.0 317.0 L 820.0 316.0 L 820.0 314.0 L 822.0 312.0 L 822.0 311.0 L 823.0 310.0 L 823.0 309.0 L 824.0 308.0 L 824.0 307.0 L 825.0 306.0 L 825.0 305.0 L 826.0 304.0 L 826.0 303.0 L 827.0 302.0 L 827.0 301.0 L 829.0 299.0 L 829.0 298.0 L 831.0 296.0 L 831.0 295.0 L 833.0 293.0 L 833.0 292.0 L 836.0 289.0 L 836.0 288.0 L 840.0 284.0 L 840.0 283.0 L 852.0 271.0 L 853.0 271.0 L 856.0 268.0 L 857.0 268.0 L 860.0 265.0 L 861.0 265.0 L 863.0 263.0 L 864.0 263.0 L 865.0 262.0 L 866.0 262.0 L 867.0 261.0 L 868.0 261.0 L 870.0 259.0 L 871.0 259.0 L 872.0 258.0 L 874.0 258.0 L 875.0 257.0 L 876.0 257.0 L 877.0 256.0 L 879.0 256.0 L 880.0 255.0 L 882.0 255.0 L 883.0 254.0 L 885.0 254.0 L 886.0 253.0 L 889.0 253.0 L 890.0 252.0 L 893.0 252.0 L 894.0 251.0 Z M 19.0 0.0 L 18.0 1.0 L 16.0 1.0 L 15.0 2.0 L 13.0 2.0 L 11.0 4.0 L 10.0 4.0 L 4.0 10.0 L 4.0 11.0 L 3.0 12.0 L 3.0 13.0 L 2.0 14.0 L 2.0 15.0 L 1.0 16.0 L 0.0 16.0 L 0.0 389.0 L 1.0 389.0 L 2.0 390.0 L 2.0 397.0 L 3.0 398.0 L 3.0 403.0 L 4.0 404.0 L 4.0 409.0 L 5.0 410.0 L 5.0 414.0 L 6.0 415.0 L 6.0 419.0 L 7.0 420.0 L 7.0 423.0 L 8.0 424.0 L 8.0 427.0 L 9.0 428.0 L 9.0 431.0 L 10.0 432.0 L 10.0 434.0 L 11.0 435.0 L 11.0 437.0 L 12.0 438.0 L 12.0 441.0 L 13.0 442.0 L 13.0 444.0 L 14.0 445.0 L 14.0 447.0 L 15.0 448.0 L 15.0 450.0 L 16.0 451.0 L 16.0 452.0 L 17.0 453.0 L 17.0 455.0 L 18.0 456.0 L 18.0 457.0 L 19.0 458.0 L 19.0 460.0 L 20.0 461.0 L 20.0 462.0 L 21.0 463.0 L 21.0 465.0 L 22.0 466.0 L 22.0 467.0 L 23.0 468.0 L 23.0 469.0 L 24.0 470.0 L 24.0 472.0 L 25.0 473.0 L 25.0 474.0 L 26.0 475.0 L 26.0 476.0 L 27.0 477.0 L 27.0 478.0 L 28.0 479.0 L 28.0 480.0 L 29.0 481.0 L 29.0 482.0 L 30.0 483.0 L 30.0 484.0 L 31.0 485.0 L 31.0 486.0 L 32.0 487.0 L 32.0 488.0 L 33.0 489.0 L 33.0 490.0 L 35.0 492.0 L 35.0 493.0 L 36.0 494.0 L 36.0 495.0 L 38.0 497.0 L 38.0 498.0 L 39.0 499.0 L 39.0 500.0 L 41.0 502.0 L 41.0 503.0 L 42.0 504.0 L 42.0 505.0 L 45.0 508.0 L 45.0 509.0 L 46.0 510.0 L 46.0 511.0 L 48.0 513.0 L 48.0 514.0 L 51.0 517.0 L 51.0 518.0 L 54.0 521.0 L 54.0 522.0 L 57.0 525.0 L 57.0 526.0 L 61.0 530.0 L 61.0 531.0 L 66.0 536.0 L 66.0 537.0 L 74.0 545.0 L 74.0 546.0 L 75.0 546.0 L 76.0 547.0 L 76.0 548.0 L 77.0 548.0 L 78.0 549.0 L 78.0 550.0 L 83.0 555.0 L 84.0 555.0 L 95.0 566.0 L 96.0 566.0 L 100.0 570.0 L 101.0 570.0 L 105.0 574.0 L 106.0 574.0 L 110.0 578.0 L 111.0 578.0 L 113.0 580.0 L 114.0 580.0 L 117.0 583.0 L 118.0 583.0 L 120.0 585.0 L 121.0 585.0 L 123.0 587.0 L 124.0 587.0 L 126.0 589.0 L 127.0 589.0 L 128.0 590.0 L 129.0 590.0 L 131.0 592.0 L 132.0 592.0 L 134.0 594.0 L 135.0 594.0 L 136.0 595.0 L 137.0 595.0 L 138.0 596.0 L 139.0 596.0 L 140.0 597.0 L 141.0 597.0 L 143.0 599.0 L 144.0 599.0 L 145.0 600.0 L 146.0 600.0 L 147.0 601.0 L 148.0 601.0 L 149.0 602.0 L 150.0 602.0 L 151.0 603.0 L 152.0 603.0 L 153.0 604.0 L 154.0 604.0 L 155.0 605.0 L 156.0 605.0 L 157.0 606.0 L 158.0 606.0 L 159.0 607.0 L 160.0 607.0 L 161.0 608.0 L 162.0 608.0 L 163.0 609.0 L 165.0 609.0 L 166.0 610.0 L 167.0 610.0 L 168.0 611.0 L 169.0 611.0 L 170.0 612.0 L 172.0 612.0 L 173.0 613.0 L 174.0 613.0 L 175.0 614.0 L 177.0 614.0 L 178.0 615.0 L 179.0 615.0 L 180.0 616.0 L 182.0 616.0 L 183.0 617.0 L 185.0 617.0 L 186.0 618.0 L 188.0 618.0 L 189.0 619.0 L 191.0 619.0 L 192.0 620.0 L 194.0 620.0 L 195.0 621.0 L 197.0 621.0 L 198.0 622.0 L 201.0 622.0 L 202.0 623.0 L 205.0 623.0 L 206.0 624.0 L 209.0 624.0 L 210.0 625.0 L 213.0 625.0 L 214.0 626.0 L 217.0 626.0 L 218.0 627.0 L 222.0 627.0 L 223.0 628.0 L 227.0 628.0 L 228.0 629.0 L 233.0 629.0 L 234.0 630.0 L 240.0 630.0 L 241.0 631.0 L 249.0 631.0 L 250.0 632.0 L 261.0 632.0 L 262.0 633.0 L 292.0 633.0 L 293.0 632.0 L 305.0 632.0 L 306.0 631.0 L 314.0 631.0 L 315.0 630.0 L 321.0 630.0 L 322.0 629.0 L 327.0 629.0 L 328.0 628.0 L 332.0 628.0 L 333.0 627.0 L 337.0 627.0 L 338.0 626.0 L 341.0 626.0 L 342.0 625.0 L 345.0 625.0 L 346.0 624.0 L 349.0 624.0 L 350.0 623.0 L 353.0 623.0 L 354.0 622.0 L 356.0 622.0 L 357.0 621.0 L 360.0 621.0 L 361.0 620.0 L 363.0 620.0 L 364.0 619.0 L 366.0 619.0 L 367.0 618.0 L 369.0 618.0 L 370.0 617.0 L 372.0 617.0 L 373.0 616.0 L 375.0 616.0 L 376.0 615.0 L 377.0 615.0 L 378.0 614.0 L 380.0 614.0 L 381.0 613.0 L 382.0 613.0 L 383.0 612.0 L 385.0 612.0 L 386.0 611.0 L 387.0 611.0 L 388.0 610.0 L 389.0 610.0 L 390.0 609.0 L 392.0 609.0 L 393.0 608.0 L 394.0 608.0 L 395.0 607.0 L 396.0 607.0 L 397.0 606.0 L 398.0 606.0 L 399.0 605.0 L 400.0 605.0 L 401.0 604.0 L 402.0 604.0 L 403.0 603.0 L 404.0 603.0 L 405.0 602.0 L 406.0 602.0 L 407.0 601.0 L 408.0 601.0 L 409.0 600.0 L 410.0 600.0 L 411.0 599.0 L 412.0 599.0 L 413.0 598.0 L 414.0 598.0 L 416.0 596.0 L 417.0 596.0 L 418.0 595.0 L 419.0 595.0 L 420.0 594.0 L 421.0 594.0 L 423.0 592.0 L 424.0 592.0 L 425.0 591.0 L 426.0 591.0 L 428.0 589.0 L 429.0 589.0 L 431.0 587.0 L 432.0 587.0 L 434.0 585.0 L 435.0 585.0 L 437.0 583.0 L 438.0 583.0 L 441.0 580.0 L 442.0 580.0 L 444.0 578.0 L 445.0 578.0 L 449.0 574.0 L 450.0 574.0 L 453.0 571.0 L 454.0 571.0 L 460.0 565.0 L 461.0 565.0 L 469.0 557.0 L 470.0 557.0 L 481.0 546.0 L 481.0 545.0 L 490.0 536.0 L 490.0 535.0 L 495.0 530.0 L 495.0 529.0 L 498.0 526.0 L 498.0 525.0 L 502.0 521.0 L 502.0 520.0 L 504.0 518.0 L 504.0 517.0 L 507.0 514.0 L 507.0 513.0 L 509.0 511.0 L 509.0 510.0 L 511.0 508.0 L 511.0 507.0 L 512.0 506.0 L 512.0 505.0 L 514.0 503.0 L 514.0 502.0 L 516.0 500.0 L 516.0 499.0 L 517.0 498.0 L 517.0 497.0 L 519.0 495.0 L 519.0 494.0 L 520.0 493.0 L 520.0 492.0 L 522.0 490.0 L 522.0 489.0 L 523.0 488.0 L 523.0 487.0 L 524.0 486.0 L 524.0 485.0 L 525.0 484.0 L 525.0 483.0 L 526.0 482.0 L 526.0 481.0 L 527.0 480.0 L 527.0 479.0 L 528.0 478.0 L 528.0 477.0 L 529.0 476.0 L 529.0 475.0 L 530.0 474.0 L 530.0 473.0 L 531.0 472.0 L 531.0 471.0 L 532.0 470.0 L 532.0 468.0 L 533.0 467.0 L 533.0 466.0 L 534.0 465.0 L 534.0 464.0 L 535.0 463.0 L 535.0 461.0 L 536.0 460.0 L 536.0 459.0 L 537.0 458.0 L 537.0 456.0 L 538.0 455.0 L 538.0 454.0 L 539.0 453.0 L 539.0 451.0 L 540.0 450.0 L 540.0 448.0 L 541.0 447.0 L 541.0 445.0 L 542.0 444.0 L 542.0 442.0 L 543.0 441.0 L 543.0 439.0 L 544.0 438.0 L 544.0 435.0 L 545.0 434.0 L 545.0 432.0 L 546.0 431.0 L 546.0 428.0 L 547.0 427.0 L 547.0 425.0 L 548.0 424.0 L 548.0 420.0 L 549.0 419.0 L 549.0 416.0 L 550.0 415.0 L 550.0 411.0 L 551.0 410.0 L 551.0 406.0 L 552.0 405.0 L 552.0 399.0 L 553.0 398.0 L 555.0 398.0 L 556.0 399.0 L 556.0 400.0 L 557.0 401.0 L 557.0 402.0 L 559.0 404.0 L 559.0 405.0 L 561.0 407.0 L 561.0 408.0 L 563.0 410.0 L 563.0 411.0 L 564.0 412.0 L 564.0 413.0 L 566.0 415.0 L 566.0 416.0 L 568.0 418.0 L 568.0 419.0 L 570.0 421.0 L 570.0 422.0 L 573.0 425.0 L 573.0 426.0 L 574.0 427.0 L 574.0 428.0 L 577.0 431.0 L 577.0 432.0 L 579.0 434.0 L 579.0 435.0 L 582.0 438.0 L 582.0 439.0 L 584.0 441.0 L 584.0 442.0 L 587.0 445.0 L 587.0 446.0 L 590.0 449.0 L 590.0 450.0 L 593.0 453.0 L 593.0 454.0 L 597.0 458.0 L 597.0 459.0 L 598.0 460.0 L 598.0 465.0 L 597.0 466.0 L 597.0 469.0 L 596.0 470.0 L 596.0 474.0 L 595.0 475.0 L 595.0 479.0 L 594.0 480.0 L 594.0 483.0 L 593.0 484.0 L 593.0 488.0 L 592.0 489.0 L 592.0 493.0 L 591.0 494.0 L 591.0 497.0 L 590.0 498.0 L 590.0 502.0 L 589.0 503.0 L 589.0 506.0 L 588.0 507.0 L 588.0 511.0 L 587.0 512.0 L 587.0 516.0 L 586.0 517.0 L 586.0 520.0 L 585.0 521.0 L 585.0 525.0 L 584.0 526.0 L 584.0 530.0 L 583.0 531.0 L 583.0 534.0 L 582.0 535.0 L 582.0 539.0 L 581.0 540.0 L 581.0 544.0 L 580.0 545.0 L 580.0 548.0 L 579.0 549.0 L 579.0 552.0 L 578.0 553.0 L 578.0 557.0 L 577.0 558.0 L 577.0 562.0 L 576.0 563.0 L 576.0 566.0 L 575.0 567.0 L 575.0 571.0 L 574.0 572.0 L 574.0 576.0 L 573.0 577.0 L 573.0 580.0 L 572.0 581.0 L 572.0 585.0 L 571.0 586.0 L 571.0 589.0 L 570.0 590.0 L 570.0 594.0 L 569.0 595.0 L 569.0 599.0 L 568.0 600.0 L 568.0 603.0 L 567.0 604.0 L 567.0 608.0 L 566.0 609.0 L 566.0 613.0 L 565.0 614.0 L 565.0 617.0 L 564.0 618.0 L 564.0 622.0 L 563.0 623.0 L 563.0 627.0 L 562.0 628.0 L 562.0 631.0 L 561.0 632.0 L 561.0 636.0 L 560.0 637.0 L 560.0 640.0 L 559.0 641.0 L 559.0 645.0 L 558.0 646.0 L 558.0 650.0 L 557.0 651.0 L 557.0 654.0 L 556.0 655.0 L 556.0 659.0 L 555.0 660.0 L 555.0 664.0 L 554.0 665.0 L 554.0 668.0 L 553.0 669.0 L 553.0 673.0 L 552.0 674.0 L 552.0 677.0 L 551.0 678.0 L 551.0 682.0 L 550.0 683.0 L 550.0 686.0 L 549.0 687.0 L 549.0 691.0 L 548.0 692.0 L 548.0 696.0 L 547.0 697.0 L 547.0 700.0 L 546.0 701.0 L 546.0 705.0 L 545.0 706.0 L 545.0 710.0 L 544.0 711.0 L 544.0 714.0 L 543.0 715.0 L 543.0 719.0 L 542.0 720.0 L 542.0 724.0 L 541.0 725.0 L 541.0 728.0 L 540.0 729.0 L 540.0 733.0 L 539.0 734.0 L 539.0 737.0 L 538.0 738.0 L 538.0 742.0 L 537.0 743.0 L 537.0 746.0 L 536.0 747.0 L 536.0 751.0 L 535.0 752.0 L 535.0 756.0 L 534.0 757.0 L 534.0 760.0 L 533.0 761.0 L 533.0 765.0 L 532.0 766.0 L 532.0 770.0 L 531.0 771.0 L 531.0 774.0 L 530.0 775.0 L 530.0 779.0 L 529.0 780.0 L 529.0 784.0 L 528.0 785.0 L 528.0 788.0 L 527.0 789.0 L 527.0 793.0 L 526.0 794.0 L 526.0 797.0 L 525.0 798.0 L 525.0 802.0 L 524.0 803.0 L 524.0 806.0 L 523.0 807.0 L 523.0 811.0 L 522.0 812.0 L 522.0 816.0 L 521.0 817.0 L 521.0 821.0 L 520.0 822.0 L 520.0 827.0 L 521.0 828.0 L 521.0 831.0 L 522.0 832.0 L 522.0 834.0 L 523.0 835.0 L 523.0 836.0 L 524.0 837.0 L 524.0 838.0 L 527.0 841.0 L 527.0 842.0 L 528.0 843.0 L 529.0 843.0 L 532.0 846.0 L 533.0 846.0 L 534.0 847.0 L 535.0 847.0 L 536.0 848.0 L 539.0 848.0 L 540.0 849.0 L 685.0 849.0 L 686.0 848.0 L 688.0 848.0 L 689.0 847.0 L 690.0 847.0 L 691.0 846.0 L 692.0 846.0 L 694.0 844.0 L 695.0 844.0 L 699.0 840.0 L 699.0 839.0 L 700.0 838.0 L 700.0 837.0 L 702.0 835.0 L 702.0 833.0 L 703.0 832.0 L 703.0 829.0 L 704.0 828.0 L 704.0 824.0 L 705.0 823.0 L 705.0 820.0 L 706.0 819.0 L 706.0 815.0 L 707.0 814.0 L 707.0 811.0 L 708.0 810.0 L 708.0 806.0 L 709.0 805.0 L 709.0 801.0 L 710.0 800.0 L 710.0 796.0 L 711.0 795.0 L 711.0 792.0 L 712.0 791.0 L 712.0 788.0 L 713.0 787.0 L 713.0 783.0 L 714.0 782.0 L 714.0 778.0 L 715.0 777.0 L 715.0 773.0 L 716.0 772.0 L 716.0 769.0 L 717.0 768.0 L 717.0 764.0 L 718.0 763.0 L 718.0 760.0 L 719.0 759.0 L 719.0 755.0 L 720.0 754.0 L 720.0 750.0 L 721.0 749.0 L 721.0 746.0 L 722.0 745.0 L 722.0 741.0 L 723.0 740.0 L 723.0 737.0 L 724.0 736.0 L 724.0 732.0 L 725.0 731.0 L 725.0 727.0 L 726.0 726.0 L 726.0 723.0 L 727.0 722.0 L 727.0 718.0 L 728.0 717.0 L 728.0 713.0 L 729.0 712.0 L 729.0 709.0 L 730.0 708.0 L 730.0 704.0 L 731.0 703.0 L 731.0 700.0 L 732.0 699.0 L 732.0 695.0 L 733.0 694.0 L 733.0 691.0 L 734.0 690.0 L 734.0 686.0 L 735.0 685.0 L 735.0 681.0 L 736.0 680.0 L 736.0 676.0 L 737.0 675.0 L 737.0 672.0 L 738.0 671.0 L 738.0 667.0 L 739.0 666.0 L 739.0 663.0 L 740.0 662.0 L 740.0 658.0 L 741.0 657.0 L 741.0 653.0 L 742.0 652.0 L 742.0 649.0 L 743.0 648.0 L 743.0 644.0 L 744.0 643.0 L 744.0 640.0 L 745.0 639.0 L 745.0 635.0 L 746.0 634.0 L 746.0 631.0 L 747.0 630.0 L 747.0 626.0 L 748.0 625.0 L 748.0 621.0 L 749.0 620.0 L 749.0 617.0 L 750.0 616.0 L 750.0 612.0 L 751.0 611.0 L 751.0 607.0 L 752.0 606.0 L 752.0 603.0 L 753.0 602.0 L 753.0 598.0 L 755.0 596.0 L 758.0 596.0 L 759.0 597.0 L 760.0 597.0 L 761.0 598.0 L 762.0 598.0 L 763.0 599.0 L 765.0 599.0 L 766.0 600.0 L 767.0 600.0 L 768.0 601.0 L 769.0 601.0 L 770.0 602.0 L 771.0 602.0 L 772.0 603.0 L 774.0 603.0 L 775.0 604.0 L 776.0 604.0 L 777.0 605.0 L 778.0 605.0 L 779.0 606.0 L 781.0 606.0 L 782.0 607.0 L 783.0 607.0 L 784.0 608.0 L 786.0 608.0 L 787.0 609.0 L 788.0 609.0 L 789.0 610.0 L 791.0 610.0 L 792.0 611.0 L 793.0 611.0 L 794.0 612.0 L 796.0 612.0 L 797.0 613.0 L 799.0 613.0 L 800.0 614.0 L 802.0 614.0 L 803.0 615.0 L 805.0 615.0 L 806.0 616.0 L 808.0 616.0 L 809.0 617.0 L 811.0 617.0 L 812.0 618.0 L 815.0 618.0 L 816.0 619.0 L 818.0 619.0 L 819.0 620.0 L 821.0 620.0 L 822.0 621.0 L 825.0 621.0 L 826.0 622.0 L 829.0 622.0 L 830.0 623.0 L 833.0 623.0 L 834.0 624.0 L 837.0 624.0 L 838.0 625.0 L 842.0 625.0 L 843.0 626.0 L 847.0 626.0 L 848.0 627.0 L 852.0 627.0 L 853.0 628.0 L 858.0 628.0 L 859.0 629.0 L 865.0 629.0 L 866.0 630.0 L 872.0 630.0 L 873.0 631.0 L 882.0 631.0 L 883.0 632.0 L 897.0 632.0 L 898.0 633.0 L 929.0 633.0 L 930.0 632.0 L 942.0 632.0 L 943.0 631.0 L 951.0 631.0 L 952.0 630.0 L 958.0 630.0 L 959.0 629.0 L 964.0 629.0 L 965.0 628.0 L 969.0 628.0 L 970.0 627.0 L 974.0 627.0 L 975.0 626.0 L 978.0 626.0 L 979.0 625.0 L 983.0 625.0 L 984.0 624.0 L 987.0 624.0 L 988.0 623.0 L 990.0 623.0 L 991.0 622.0 L 994.0 622.0 L 995.0 621.0 L 997.0 621.0 L 998.0 620.0 L 1001.0 620.0 L 1002.0 619.0 L 1004.0 619.0 L 1005.0 618.0 L 1007.0 618.0 L 1008.0 617.0 L 1010.0 617.0 L 1011.0 616.0 L 1012.0 616.0 L 1013.0 615.0 L 1015.0 615.0 L 1016.0 614.0 L 1018.0 614.0 L 1019.0 613.0 L 1020.0 613.0 L 1021.0 612.0 L 1023.0 612.0 L 1024.0 611.0 L 1025.0 611.0 L 1026.0 610.0 L 1027.0 610.0 L 1028.0 609.0 L 1030.0 609.0 L 1031.0 608.0 L 1032.0 608.0 L 1033.0 607.0 L 1034.0 607.0 L 1035.0 606.0 L 1036.0 606.0 L 1037.0 605.0 L 1038.0 605.0 L 1039.0 604.0 L 1041.0 604.0 L 1042.0 603.0 L 1043.0 603.0 L 1044.0 602.0 L 1045.0 602.0 L 1047.0 600.0 L 1048.0 600.0 L 1049.0 599.0 L 1050.0 599.0 L 1051.0 598.0 L 1052.0 598.0 L 1053.0 597.0 L 1054.0 597.0 L 1055.0 596.0 L 1056.0 596.0 L 1058.0 594.0 L 1059.0 594.0 L 1060.0 593.0 L 1061.0 593.0 L 1063.0 591.0 L 1064.0 591.0 L 1065.0 590.0 L 1066.0 590.0 L 1068.0 588.0 L 1069.0 588.0 L 1071.0 586.0 L 1072.0 586.0 L 1073.0 585.0 L 1074.0 585.0 L 1077.0 582.0 L 1078.0 582.0 L 1080.0 580.0 L 1081.0 580.0 L 1084.0 577.0 L 1085.0 577.0 L 1088.0 574.0 L 1089.0 574.0 L 1092.0 571.0 L 1093.0 571.0 L 1097.0 567.0 L 1098.0 567.0 L 1104.0 561.0 L 1105.0 561.0 L 1129.0 537.0 L 1129.0 536.0 L 1135.0 530.0 L 1135.0 529.0 L 1139.0 525.0 L 1139.0 524.0 L 1143.0 520.0 L 1143.0 519.0 L 1145.0 517.0 L 1145.0 516.0 L 1148.0 513.0 L 1148.0 512.0 L 1150.0 510.0 L 1150.0 509.0 L 1152.0 507.0 L 1152.0 506.0 L 1154.0 504.0 L 1154.0 503.0 L 1156.0 501.0 L 1156.0 500.0 L 1158.0 498.0 L 1158.0 497.0 L 1159.0 496.0 L 1159.0 495.0 L 1161.0 493.0 L 1161.0 492.0 L 1162.0 491.0 L 1162.0 490.0 L 1163.0 489.0 L 1163.0 488.0 L 1165.0 486.0 L 1165.0 485.0 L 1166.0 484.0 L 1166.0 483.0 L 1167.0 482.0 L 1167.0 481.0 L 1168.0 480.0 L 1168.0 479.0 L 1169.0 478.0 L 1169.0 477.0 L 1170.0 476.0 L 1170.0 475.0 L 1171.0 474.0 L 1171.0 473.0 L 1172.0 472.0 L 1172.0 471.0 L 1173.0 470.0 L 1173.0 469.0 L 1174.0 468.0 L 1174.0 467.0 L 1175.0 466.0 L 1175.0 464.0 L 1176.0 463.0 L 1176.0 462.0 L 1177.0 461.0 L 1177.0 460.0 L 1178.0 459.0 L 1178.0 457.0 L 1179.0 456.0 L 1179.0 455.0 L 1180.0 454.0 L 1180.0 452.0 L 1181.0 451.0 L 1181.0 450.0 L 1182.0 449.0 L 1182.0 447.0 L 1183.0 446.0 L 1183.0 444.0 L 1184.0 443.0 L 1184.0 441.0 L 1185.0 440.0 L 1185.0 438.0 L 1186.0 437.0 L 1186.0 435.0 L 1187.0 434.0 L 1187.0 432.0 L 1188.0 431.0 L 1188.0 429.0 L 1189.0 428.0 L 1189.0 425.0 L 1190.0 424.0 L 1190.0 421.0 L 1191.0 420.0 L 1191.0 417.0 L 1192.0 416.0 L 1192.0 413.0 L 1193.0 412.0 L 1193.0 408.0 L 1194.0 407.0 L 1194.0 403.0 L 1195.0 402.0 L 1195.0 397.0 L 1196.0 396.0 L 1196.0 391.0 L 1197.0 390.0 L 1197.0 383.0 L 1198.0 382.0 L 1199.0 382.0 L 1199.0 321.0 L 1198.0 321.0 L 1197.0 320.0 L 1197.0 314.0 L 1196.0 313.0 L 1196.0 307.0 L 1195.0 306.0 L 1195.0 302.0 L 1194.0 301.0 L 1194.0 296.0 L 1193.0 295.0 L 1193.0 292.0 L 1192.0 291.0 L 1192.0 288.0 L 1191.0 287.0 L 1191.0 284.0 L 1190.0 283.0 L 1190.0 280.0 L 1189.0 279.0 L 1189.0 276.0 L 1188.0 275.0 L 1188.0 273.0 L 1187.0 272.0 L 1187.0 270.0 L 1186.0 269.0 L 1186.0 267.0 L 1185.0 266.0 L 1185.0 264.0 L 1184.0 263.0 L 1184.0 261.0 L 1183.0 260.0 L 1183.0 258.0 L 1182.0 257.0 L 1182.0 255.0 L 1181.0 254.0 L 1181.0 252.0 L 1180.0 251.0 L 1180.0 250.0 L 1179.0 249.0 L 1179.0 248.0 L 1178.0 247.0 L 1178.0 245.0 L 1177.0 244.0 L 1177.0 243.0 L 1176.0 242.0 L 1176.0 241.0 L 1175.0 240.0 L 1175.0 238.0 L 1174.0 237.0 L 1174.0 236.0 L 1173.0 235.0 L 1173.0 234.0 L 1172.0 233.0 L 1172.0 232.0 L 1171.0 231.0 L 1171.0 230.0 L 1170.0 229.0 L 1170.0 228.0 L 1169.0 227.0 L 1169.0 226.0 L 1168.0 225.0 L 1168.0 224.0 L 1167.0 223.0 L 1167.0 222.0 L 1166.0 221.0 L 1166.0 220.0 L 1165.0 219.0 L 1165.0 218.0 L 1163.0 216.0 L 1163.0 215.0 L 1162.0 214.0 L 1162.0 213.0 L 1161.0 212.0 L 1161.0 211.0 L 1159.0 209.0 L 1159.0 208.0 L 1158.0 207.0 L 1158.0 206.0 L 1156.0 204.0 L 1156.0 203.0 L 1154.0 201.0 L 1154.0 200.0 L 1153.0 199.0 L 1153.0 198.0 L 1150.0 195.0 L 1150.0 194.0 L 1147.0 191.0 L 1147.0 190.0 L 1145.0 188.0 L 1145.0 187.0 L 1142.0 184.0 L 1142.0 183.0 L 1138.0 179.0 L 1138.0 178.0 L 1133.0 173.0 L 1133.0 172.0 L 1128.0 167.0 L 1128.0 166.0 L 1107.0 145.0 L 1106.0 145.0 L 1100.0 139.0 L 1099.0 139.0 L 1094.0 134.0 L 1093.0 134.0 L 1090.0 131.0 L 1089.0 131.0 L 1086.0 128.0 L 1085.0 128.0 L 1082.0 125.0 L 1081.0 125.0 L 1079.0 123.0 L 1078.0 123.0 L 1075.0 120.0 L 1074.0 120.0 L 1072.0 118.0 L 1071.0 118.0 L 1070.0 117.0 L 1069.0 117.0 L 1067.0 115.0 L 1066.0 115.0 L 1065.0 114.0 L 1064.0 114.0 L 1062.0 112.0 L 1061.0 112.0 L 1059.0 110.0 L 1058.0 110.0 L 1057.0 109.0 L 1056.0 109.0 L 1055.0 108.0 L 1054.0 108.0 L 1053.0 107.0 L 1052.0 107.0 L 1050.0 105.0 L 1049.0 105.0 L 1048.0 104.0 L 1047.0 104.0 L 1046.0 103.0 L 1045.0 103.0 L 1044.0 102.0 L 1043.0 102.0 L 1042.0 101.0 L 1041.0 101.0 L 1040.0 100.0 L 1039.0 100.0 L 1038.0 99.0 L 1037.0 99.0 L 1036.0 98.0 L 1034.0 98.0 L 1033.0 97.0 L 1032.0 97.0 L 1031.0 96.0 L 1030.0 96.0 L 1029.0 95.0 L 1028.0 95.0 L 1027.0 94.0 L 1025.0 94.0 L 1024.0 93.0 L 1023.0 93.0 L 1022.0 92.0 L 1021.0 92.0 L 1020.0 91.0 L 1018.0 91.0 L 1017.0 90.0 L 1015.0 90.0 L 1014.0 89.0 L 1012.0 89.0 L 1011.0 88.0 L 1010.0 88.0 L 1009.0 87.0 L 1007.0 87.0 L 1006.0 86.0 L 1004.0 86.0 L 1003.0 85.0 L 1000.0 85.0 L 999.0 84.0 L 997.0 84.0 L 996.0 83.0 L 994.0 83.0 L 993.0 82.0 L 990.0 82.0 L 989.0 81.0 L 986.0 81.0 L 985.0 80.0 L 983.0 80.0 L 982.0 79.0 L 978.0 79.0 L 977.0 78.0 L 973.0 78.0 L 972.0 77.0 L 968.0 77.0 L 967.0 76.0 L 963.0 76.0 L 962.0 75.0 L 956.0 75.0 L 955.0 74.0 L 949.0 74.0 L 948.0 73.0 L 939.0 73.0 L 938.0 72.0 L 920.0 72.0 L 919.0 71.0 L 909.0 71.0 L 908.0 72.0 L 889.0 72.0 L 888.0 73.0 L 879.0 73.0 L 878.0 74.0 L 871.0 74.0 L 870.0 75.0 L 865.0 75.0 L 864.0 76.0 L 859.0 76.0 L 858.0 77.0 L 854.0 77.0 L 853.0 78.0 L 850.0 78.0 L 849.0 79.0 L 845.0 79.0 L 844.0 80.0 L 841.0 80.0 L 840.0 81.0 L 838.0 81.0 L 837.0 82.0 L 834.0 82.0 L 833.0 83.0 L 830.0 83.0 L 829.0 84.0 L 827.0 84.0 L 826.0 85.0 L 824.0 85.0 L 823.0 86.0 L 821.0 86.0 L 820.0 87.0 L 819.0 87.0 L 818.0 88.0 L 816.0 88.0 L 815.0 89.0 L 813.0 89.0 L 812.0 90.0 L 810.0 90.0 L 809.0 91.0 L 808.0 91.0 L 807.0 92.0 L 805.0 92.0 L 804.0 93.0 L 803.0 93.0 L 802.0 94.0 L 801.0 94.0 L 800.0 95.0 L 798.0 95.0 L 797.0 96.0 L 796.0 96.0 L 795.0 97.0 L 794.0 97.0 L 793.0 98.0 L 792.0 98.0 L 791.0 99.0 L 790.0 99.0 L 789.0 100.0 L 788.0 100.0 L 787.0 101.0 L 786.0 101.0 L 785.0 102.0 L 784.0 102.0 L 783.0 103.0 L 782.0 103.0 L 781.0 104.0 L 780.0 104.0 L 779.0 105.0 L 778.0 105.0 L 776.0 107.0 L 775.0 107.0 L 774.0 108.0 L 773.0 108.0 L 771.0 110.0 L 770.0 110.0 L 769.0 111.0 L 768.0 111.0 L 767.0 112.0 L 766.0 112.0 L 763.0 115.0 L 762.0 115.0 L 761.0 116.0 L 760.0 116.0 L 758.0 118.0 L 757.0 118.0 L 754.0 121.0 L 753.0 121.0 L 751.0 123.0 L 750.0 123.0 L 747.0 126.0 L 746.0 126.0 L 743.0 129.0 L 742.0 129.0 L 738.0 133.0 L 737.0 133.0 L 731.0 139.0 L 730.0 139.0 L 706.0 163.0 L 706.0 164.0 L 701.0 169.0 L 701.0 170.0 L 696.0 175.0 L 696.0 176.0 L 693.0 179.0 L 693.0 180.0 L 690.0 183.0 L 690.0 184.0 L 687.0 187.0 L 687.0 188.0 L 685.0 190.0 L 685.0 191.0 L 683.0 193.0 L 683.0 194.0 L 680.0 197.0 L 680.0 198.0 L 679.0 199.0 L 679.0 200.0 L 677.0 202.0 L 677.0 203.0 L 675.0 205.0 L 675.0 206.0 L 673.0 208.0 L 673.0 209.0 L 672.0 210.0 L 672.0 211.0 L 670.0 213.0 L 670.0 214.0 L 669.0 215.0 L 669.0 216.0 L 668.0 217.0 L 668.0 218.0 L 667.0 219.0 L 667.0 220.0 L 665.0 222.0 L 665.0 223.0 L 664.0 224.0 L 664.0 225.0 L 663.0 226.0 L 663.0 227.0 L 662.0 228.0 L 662.0 229.0 L 661.0 230.0 L 661.0 231.0 L 660.0 232.0 L 660.0 233.0 L 659.0 234.0 L 659.0 235.0 L 658.0 236.0 L 658.0 237.0 L 657.0 238.0 L 657.0 239.0 L 656.0 240.0 L 656.0 241.0 L 654.0 243.0 L 652.0 243.0 L 651.0 242.0 L 651.0 241.0 L 650.0 240.0 L 650.0 239.0 L 648.0 237.0 L 648.0 236.0 L 647.0 235.0 L 647.0 234.0 L 645.0 232.0 L 645.0 231.0 L 644.0 230.0 L 644.0 229.0 L 643.0 228.0 L 643.0 227.0 L 642.0 226.0 L 642.0 225.0 L 641.0 224.0 L 641.0 223.0 L 639.0 221.0 L 639.0 220.0 L 638.0 219.0 L 638.0 218.0 L 637.0 217.0 L 637.0 216.0 L 636.0 215.0 L 636.0 214.0 L 635.0 213.0 L 635.0 212.0 L 633.0 210.0 L 633.0 209.0 L 632.0 208.0 L 632.0 207.0 L 631.0 206.0 L 631.0 205.0 L 630.0 204.0 L 630.0 203.0 L 629.0 202.0 L 629.0 201.0 L 628.0 200.0 L 628.0 199.0 L 627.0 198.0 L 627.0 197.0 L 626.0 196.0 L 626.0 195.0 L 625.0 194.0 L 625.0 193.0 L 624.0 192.0 L 624.0 191.0 L 623.0 190.0 L 623.0 189.0 L 622.0 188.0 L 622.0 187.0 L 621.0 186.0 L 621.0 185.0 L 620.0 184.0 L 620.0 183.0 L 619.0 182.0 L 619.0 181.0 L 618.0 180.0 L 618.0 179.0 L 617.0 178.0 L 617.0 177.0 L 616.0 176.0 L 616.0 175.0 L 615.0 174.0 L 615.0 173.0 L 614.0 172.0 L 614.0 171.0 L 613.0 170.0 L 613.0 169.0 L 612.0 168.0 L 612.0 167.0 L 611.0 166.0 L 611.0 165.0 L 610.0 164.0 L 610.0 163.0 L 609.0 162.0 L 609.0 161.0 L 608.0 160.0 L 608.0 158.0 L 607.0 157.0 L 607.0 156.0 L 606.0 155.0 L 606.0 154.0 L 605.0 153.0 L 605.0 152.0 L 604.0 151.0 L 604.0 150.0 L 603.0 149.0 L 603.0 147.0 L 602.0 146.0 L 602.0 145.0 L 601.0 144.0 L 601.0 143.0 L 600.0 142.0 L 600.0 140.0 L 599.0 139.0 L 599.0 138.0 L 598.0 137.0 L 598.0 136.0 L 597.0 135.0 L 597.0 134.0 L 596.0 133.0 L 596.0 131.0 L 595.0 130.0 L 595.0 129.0 L 594.0 128.0 L 594.0 127.0 L 593.0 126.0 L 593.0 124.0 L 592.0 123.0 L 592.0 122.0 L 591.0 121.0 L 591.0 119.0 L 590.0 118.0 L 590.0 117.0 L 589.0 116.0 L 589.0 114.0 L 588.0 113.0 L 588.0 112.0 L 587.0 111.0 L 587.0 110.0 L 586.0 109.0 L 586.0 107.0 L 585.0 106.0 L 585.0 105.0 L 584.0 104.0 L 584.0 102.0 L 583.0 101.0 L 583.0 100.0 L 582.0 99.0 L 582.0 97.0 L 581.0 96.0 L 581.0 94.0 L 580.0 93.0 L 580.0 92.0 L 579.0 91.0 L 579.0 89.0 L 578.0 88.0 L 578.0 87.0 L 577.0 86.0 L 577.0 84.0 L 576.0 83.0 L 576.0 81.0 L 575.0 80.0 L 575.0 78.0 L 574.0 77.0 L 574.0 76.0 L 573.0 75.0 L 573.0 73.0 L 572.0 72.0 L 572.0 70.0 L 571.0 69.0 L 571.0 67.0 L 570.0 66.0 L 570.0 65.0 L 569.0 64.0 L 569.0 62.0 L 568.0 61.0 L 568.0 59.0 L 567.0 58.0 L 567.0 56.0 L 566.0 55.0 L 566.0 53.0 L 565.0 52.0 L 565.0 50.0 L 564.0 49.0 L 564.0 47.0 L 563.0 46.0 L 563.0 44.0 L 562.0 43.0 L 562.0 41.0 L 561.0 40.0 L 561.0 38.0 L 560.0 37.0 L 560.0 35.0 L 559.0 34.0 L 559.0 31.0 L 558.0 30.0 L 558.0 28.0 L 557.0 27.0 L 557.0 25.0 L 556.0 24.0 L 556.0 22.0 L 555.0 21.0 L 555.0 18.0 L 554.0 17.0 L 554.0 15.0 L 553.0 14.0 L 553.0 13.0 L 552.0 12.0 L 552.0 11.0 L 545.0 4.0 L 544.0 4.0 L 542.0 2.0 L 540.0 2.0 L 539.0 1.0 L 537.0 1.0 L 536.0 0.0 L 394.0 0.0 L 393.0 1.0 L 391.0 1.0 L 390.0 2.0 L 388.0 2.0 L 386.0 4.0 L 385.0 4.0 L 379.0 10.0 L 379.0 11.0 L 378.0 12.0 L 378.0 13.0 L 377.0 14.0 L 377.0 15.0 L 376.0 16.0 L 376.0 18.0 L 375.0 19.0 L 375.0 365.0 L 374.0 366.0 L 374.0 373.0 L 373.0 374.0 L 373.0 379.0 L 372.0 380.0 L 372.0 383.0 L 371.0 384.0 L 371.0 386.0 L 370.0 387.0 L 370.0 389.0 L 369.0 390.0 L 369.0 392.0 L 368.0 393.0 L 368.0 394.0 L 367.0 395.0 L 367.0 396.0 L 366.0 397.0 L 366.0 398.0 L 365.0 399.0 L 365.0 400.0 L 364.0 401.0 L 364.0 402.0 L 363.0 403.0 L 363.0 404.0 L 362.0 405.0 L 362.0 406.0 L 361.0 407.0 L 361.0 408.0 L 359.0 410.0 L 359.0 411.0 L 356.0 414.0 L 356.0 415.0 L 352.0 419.0 L 352.0 420.0 L 341.0 431.0 L 340.0 431.0 L 337.0 434.0 L 336.0 434.0 L 333.0 437.0 L 332.0 437.0 L 330.0 439.0 L 329.0 439.0 L 327.0 441.0 L 326.0 441.0 L 325.0 442.0 L 324.0 442.0 L 323.0 443.0 L 322.0 443.0 L 321.0 444.0 L 320.0 444.0 L 319.0 445.0 L 318.0 445.0 L 317.0 446.0 L 315.0 446.0 L 314.0 447.0 L 313.0 447.0 L 312.0 448.0 L 310.0 448.0 L 309.0 449.0 L 307.0 449.0 L 306.0 450.0 L 304.0 450.0 L 303.0 451.0 L 300.0 451.0 L 299.0 452.0 L 294.0 452.0 L 293.0 453.0 L 286.0 453.0 L 285.0 454.0 L 269.0 454.0 L 268.0 453.0 L 262.0 453.0 L 261.0 452.0 L 256.0 452.0 L 255.0 451.0 L 253.0 451.0 L 252.0 450.0 L 249.0 450.0 L 248.0 449.0 L 246.0 449.0 L 245.0 448.0 L 243.0 448.0 L 242.0 447.0 L 241.0 447.0 L 240.0 446.0 L 238.0 446.0 L 237.0 445.0 L 236.0 445.0 L 235.0 444.0 L 234.0 444.0 L 233.0 443.0 L 232.0 443.0 L 230.0 441.0 L 229.0 441.0 L 228.0 440.0 L 227.0 440.0 L 226.0 439.0 L 225.0 439.0 L 223.0 437.0 L 222.0 437.0 L 219.0 434.0 L 218.0 434.0 L 215.0 431.0 L 214.0 431.0 L 203.0 420.0 L 203.0 419.0 L 200.0 416.0 L 200.0 415.0 L 197.0 412.0 L 197.0 411.0 L 195.0 409.0 L 195.0 408.0 L 193.0 406.0 L 193.0 405.0 L 192.0 404.0 L 192.0 403.0 L 191.0 402.0 L 191.0 401.0 L 190.0 400.0 L 190.0 399.0 L 189.0 398.0 L 189.0 397.0 L 188.0 396.0 L 188.0 395.0 L 187.0 394.0 L 187.0 392.0 L 186.0 391.0 L 186.0 390.0 L 185.0 389.0 L 185.0 387.0 L 184.0 386.0 L 184.0 383.0 L 183.0 382.0 L 183.0 379.0 L 182.0 378.0 L 182.0 374.0 L 181.0 373.0 L 181.0 364.0 L 180.0 363.0 L 180.0 19.0 L 179.0 18.0 L 179.0 15.0 L 178.0 14.0 L 178.0 13.0 L 176.0 11.0 L 176.0 10.0 L 170.0 4.0 L 169.0 4.0 L 167.0 2.0 L 165.0 2.0 L 164.0 1.0 L 162.0 1.0 L 161.0 0.0 Z M 49.0 50.0 L 50.0 49.0 L 130.0 49.0 L 131.0 50.0 L 131.0 371.0 L 132.0 372.0 L 132.0 380.0 L 133.0 381.0 L 133.0 386.0 L 134.0 387.0 L 134.0 390.0 L 135.0 391.0 L 135.0 394.0 L 136.0 395.0 L 136.0 398.0 L 137.0 399.0 L 137.0 402.0 L 138.0 403.0 L 138.0 404.0 L 139.0 405.0 L 139.0 407.0 L 140.0 408.0 L 140.0 410.0 L 141.0 411.0 L 141.0 412.0 L 142.0 413.0 L 142.0 415.0 L 143.0 416.0 L 143.0 417.0 L 144.0 418.0 L 144.0 419.0 L 145.0 420.0 L 145.0 421.0 L 146.0 422.0 L 146.0 423.0 L 147.0 424.0 L 147.0 425.0 L 148.0 426.0 L 148.0 427.0 L 149.0 428.0 L 149.0 429.0 L 151.0 431.0 L 151.0 432.0 L 152.0 433.0 L 152.0 434.0 L 153.0 435.0 L 153.0 436.0 L 155.0 438.0 L 155.0 439.0 L 158.0 442.0 L 158.0 443.0 L 160.0 445.0 L 160.0 446.0 L 165.0 451.0 L 165.0 452.0 L 182.0 469.0 L 183.0 469.0 L 187.0 473.0 L 188.0 473.0 L 191.0 476.0 L 192.0 476.0 L 194.0 478.0 L 195.0 478.0 L 197.0 480.0 L 198.0 480.0 L 200.0 482.0 L 201.0 482.0 L 202.0 483.0 L 203.0 483.0 L 204.0 484.0 L 205.0 484.0 L 207.0 486.0 L 208.0 486.0 L 209.0 487.0 L 210.0 487.0 L 211.0 488.0 L 212.0 488.0 L 213.0 489.0 L 214.0 489.0 L 215.0 490.0 L 216.0 490.0 L 217.0 491.0 L 219.0 491.0 L 220.0 492.0 L 221.0 492.0 L 222.0 493.0 L 224.0 493.0 L 225.0 494.0 L 226.0 494.0 L 227.0 495.0 L 229.0 495.0 L 230.0 496.0 L 232.0 496.0 L 233.0 497.0 L 236.0 497.0 L 237.0 498.0 L 239.0 498.0 L 240.0 499.0 L 243.0 499.0 L 244.0 500.0 L 247.0 500.0 L 248.0 501.0 L 253.0 501.0 L 254.0 502.0 L 260.0 502.0 L 261.0 503.0 L 276.0 503.0 L 277.0 504.0 L 279.0 504.0 L 280.0 503.0 L 295.0 503.0 L 296.0 502.0 L 301.0 502.0 L 302.0 501.0 L 307.0 501.0 L 308.0 500.0 L 311.0 500.0 L 312.0 499.0 L 315.0 499.0 L 316.0 498.0 L 319.0 498.0 L 320.0 497.0 L 322.0 497.0 L 323.0 496.0 L 325.0 496.0 L 326.0 495.0 L 328.0 495.0 L 329.0 494.0 L 331.0 494.0 L 332.0 493.0 L 333.0 493.0 L 334.0 492.0 L 336.0 492.0 L 337.0 491.0 L 338.0 491.0 L 339.0 490.0 L 340.0 490.0 L 341.0 489.0 L 342.0 489.0 L 343.0 488.0 L 344.0 488.0 L 345.0 487.0 L 346.0 487.0 L 347.0 486.0 L 348.0 486.0 L 349.0 485.0 L 350.0 485.0 L 352.0 483.0 L 353.0 483.0 L 354.0 482.0 L 355.0 482.0 L 357.0 480.0 L 358.0 480.0 L 360.0 478.0 L 361.0 478.0 L 363.0 476.0 L 364.0 476.0 L 366.0 474.0 L 367.0 474.0 L 371.0 470.0 L 372.0 470.0 L 383.0 459.0 L 384.0 459.0 L 384.0 458.0 L 392.0 450.0 L 392.0 449.0 L 395.0 446.0 L 395.0 445.0 L 398.0 442.0 L 398.0 441.0 L 400.0 439.0 L 400.0 438.0 L 402.0 436.0 L 402.0 435.0 L 403.0 434.0 L 403.0 433.0 L 405.0 431.0 L 405.0 430.0 L 406.0 429.0 L 406.0 428.0 L 408.0 426.0 L 408.0 425.0 L 409.0 424.0 L 409.0 423.0 L 410.0 422.0 L 410.0 421.0 L 411.0 420.0 L 411.0 419.0 L 412.0 418.0 L 412.0 416.0 L 413.0 415.0 L 413.0 414.0 L 414.0 413.0 L 414.0 411.0 L 415.0 410.0 L 415.0 409.0 L 416.0 408.0 L 416.0 406.0 L 417.0 405.0 L 417.0 403.0 L 418.0 402.0 L 418.0 400.0 L 419.0 399.0 L 419.0 396.0 L 420.0 395.0 L 420.0 392.0 L 421.0 391.0 L 421.0 388.0 L 422.0 387.0 L 422.0 382.0 L 423.0 381.0 L 423.0 375.0 L 424.0 374.0 L 424.0 50.0 L 425.0 49.0 L 511.0 49.0 L 513.0 51.0 L 513.0 52.0 L 514.0 53.0 L 514.0 55.0 L 515.0 56.0 L 515.0 59.0 L 516.0 60.0 L 516.0 62.0 L 517.0 63.0 L 517.0 65.0 L 518.0 66.0 L 518.0 68.0 L 519.0 69.0 L 519.0 71.0 L 520.0 72.0 L 520.0 73.0 L 521.0 74.0 L 521.0 76.0 L 522.0 77.0 L 522.0 79.0 L 523.0 80.0 L 523.0 82.0 L 524.0 83.0 L 524.0 85.0 L 525.0 86.0 L 525.0 88.0 L 526.0 89.0 L 526.0 90.0 L 527.0 91.0 L 527.0 93.0 L 528.0 94.0 L 528.0 96.0 L 529.0 97.0 L 529.0 99.0 L 530.0 100.0 L 530.0 101.0 L 531.0 102.0 L 531.0 104.0 L 532.0 105.0 L 532.0 107.0 L 533.0 108.0 L 533.0 109.0 L 534.0 110.0 L 534.0 112.0 L 535.0 113.0 L 535.0 114.0 L 536.0 115.0 L 536.0 117.0 L 537.0 118.0 L 537.0 120.0 L 538.0 121.0 L 538.0 122.0 L 539.0 123.0 L 539.0 125.0 L 540.0 126.0 L 540.0 127.0 L 541.0 128.0 L 541.0 130.0 L 542.0 131.0 L 542.0 132.0 L 543.0 133.0 L 543.0 134.0 L 544.0 135.0 L 544.0 137.0 L 545.0 138.0 L 545.0 139.0 L 546.0 140.0 L 546.0 142.0 L 547.0 143.0 L 547.0 144.0 L 548.0 145.0 L 548.0 146.0 L 549.0 147.0 L 549.0 149.0 L 550.0 150.0 L 550.0 151.0 L 551.0 152.0 L 551.0 154.0 L 552.0 155.0 L 552.0 156.0 L 553.0 157.0 L 553.0 158.0 L 554.0 159.0 L 554.0 160.0 L 555.0 161.0 L 555.0 162.0 L 556.0 163.0 L 556.0 165.0 L 557.0 166.0 L 557.0 167.0 L 558.0 168.0 L 558.0 169.0 L 559.0 170.0 L 559.0 172.0 L 560.0 173.0 L 560.0 174.0 L 561.0 175.0 L 561.0 176.0 L 562.0 177.0 L 562.0 178.0 L 563.0 179.0 L 563.0 180.0 L 564.0 181.0 L 564.0 182.0 L 565.0 183.0 L 565.0 184.0 L 566.0 185.0 L 566.0 187.0 L 567.0 188.0 L 567.0 189.0 L 568.0 190.0 L 568.0 191.0 L 569.0 192.0 L 569.0 193.0 L 570.0 194.0 L 570.0 195.0 L 571.0 196.0 L 571.0 197.0 L 572.0 198.0 L 572.0 199.0 L 573.0 200.0 L 573.0 201.0 L 574.0 202.0 L 574.0 203.0 L 575.0 204.0 L 575.0 205.0 L 576.0 206.0 L 576.0 207.0 L 577.0 208.0 L 577.0 209.0 L 578.0 210.0 L 578.0 211.0 L 579.0 212.0 L 579.0 213.0 L 580.0 214.0 L 580.0 215.0 L 581.0 216.0 L 581.0 217.0 L 582.0 218.0 L 582.0 219.0 L 583.0 220.0 L 583.0 221.0 L 584.0 222.0 L 584.0 223.0 L 585.0 224.0 L 585.0 225.0 L 586.0 226.0 L 586.0 227.0 L 587.0 228.0 L 587.0 229.0 L 588.0 230.0 L 588.0 231.0 L 590.0 233.0 L 590.0 234.0 L 591.0 235.0 L 591.0 236.0 L 592.0 237.0 L 592.0 238.0 L 593.0 239.0 L 593.0 240.0 L 594.0 241.0 L 594.0 242.0 L 595.0 243.0 L 595.0 244.0 L 597.0 246.0 L 597.0 247.0 L 598.0 248.0 L 598.0 249.0 L 599.0 250.0 L 599.0 251.0 L 600.0 252.0 L 600.0 253.0 L 602.0 255.0 L 602.0 256.0 L 603.0 257.0 L 603.0 258.0 L 604.0 259.0 L 604.0 260.0 L 606.0 262.0 L 606.0 263.0 L 607.0 264.0 L 607.0 265.0 L 608.0 266.0 L 608.0 267.0 L 610.0 269.0 L 610.0 270.0 L 611.0 271.0 L 611.0 272.0 L 613.0 274.0 L 613.0 275.0 L 614.0 276.0 L 614.0 277.0 L 616.0 279.0 L 616.0 280.0 L 617.0 281.0 L 617.0 282.0 L 619.0 284.0 L 619.0 285.0 L 620.0 286.0 L 620.0 287.0 L 622.0 289.0 L 622.0 290.0 L 624.0 292.0 L 624.0 293.0 L 625.0 294.0 L 625.0 295.0 L 627.0 297.0 L 627.0 298.0 L 629.0 300.0 L 629.0 301.0 L 631.0 303.0 L 631.0 304.0 L 632.0 305.0 L 632.0 306.0 L 634.0 308.0 L 634.0 309.0 L 637.0 312.0 L 637.0 313.0 L 638.0 314.0 L 638.0 315.0 L 645.0 322.0 L 646.0 322.0 L 647.0 323.0 L 648.0 323.0 L 649.0 324.0 L 650.0 324.0 L 651.0 325.0 L 653.0 325.0 L 654.0 326.0 L 665.0 326.0 L 666.0 325.0 L 668.0 325.0 L 669.0 324.0 L 670.0 324.0 L 671.0 323.0 L 672.0 323.0 L 673.0 322.0 L 674.0 322.0 L 680.0 316.0 L 680.0 315.0 L 681.0 314.0 L 681.0 313.0 L 682.0 312.0 L 682.0 311.0 L 683.0 310.0 L 683.0 308.0 L 684.0 307.0 L 684.0 305.0 L 685.0 304.0 L 685.0 302.0 L 686.0 301.0 L 686.0 299.0 L 687.0 298.0 L 687.0 296.0 L 688.0 295.0 L 688.0 293.0 L 689.0 292.0 L 689.0 290.0 L 690.0 289.0 L 690.0 287.0 L 691.0 286.0 L 691.0 285.0 L 692.0 284.0 L 692.0 282.0 L 693.0 281.0 L 693.0 280.0 L 694.0 279.0 L 694.0 277.0 L 695.0 276.0 L 695.0 275.0 L 696.0 274.0 L 696.0 273.0 L 697.0 272.0 L 697.0 270.0 L 698.0 269.0 L 698.0 268.0 L 699.0 267.0 L 699.0 266.0 L 700.0 265.0 L 700.0 264.0 L 701.0 263.0 L 701.0 262.0 L 702.0 261.0 L 702.0 259.0 L 703.0 258.0 L 703.0 257.0 L 704.0 256.0 L 704.0 255.0 L 705.0 254.0 L 705.0 253.0 L 707.0 251.0 L 707.0 250.0 L 708.0 249.0 L 708.0 248.0 L 709.0 247.0 L 709.0 246.0 L 710.0 245.0 L 710.0 244.0 L 712.0 242.0 L 712.0 241.0 L 713.0 240.0 L 713.0 239.0 L 714.0 238.0 L 714.0 237.0 L 716.0 235.0 L 716.0 234.0 L 717.0 233.0 L 717.0 232.0 L 719.0 230.0 L 719.0 229.0 L 721.0 227.0 L 721.0 226.0 L 723.0 224.0 L 723.0 223.0 L 725.0 221.0 L 725.0 220.0 L 727.0 218.0 L 727.0 217.0 L 730.0 214.0 L 730.0 213.0 L 734.0 209.0 L 734.0 208.0 L 738.0 204.0 L 738.0 203.0 L 744.0 197.0 L 744.0 196.0 L 763.0 177.0 L 764.0 177.0 L 769.0 172.0 L 770.0 172.0 L 774.0 168.0 L 775.0 168.0 L 779.0 164.0 L 780.0 164.0 L 782.0 162.0 L 783.0 162.0 L 785.0 160.0 L 786.0 160.0 L 788.0 158.0 L 789.0 158.0 L 791.0 156.0 L 792.0 156.0 L 794.0 154.0 L 795.0 154.0 L 796.0 153.0 L 797.0 153.0 L 799.0 151.0 L 800.0 151.0 L 801.0 150.0 L 802.0 150.0 L 804.0 148.0 L 805.0 148.0 L 806.0 147.0 L 807.0 147.0 L 808.0 146.0 L 809.0 146.0 L 810.0 145.0 L 811.0 145.0 L 812.0 144.0 L 813.0 144.0 L 814.0 143.0 L 815.0 143.0 L 816.0 142.0 L 817.0 142.0 L 818.0 141.0 L 820.0 141.0 L 821.0 140.0 L 822.0 140.0 L 823.0 139.0 L 824.0 139.0 L 825.0 138.0 L 827.0 138.0 L 828.0 137.0 L 829.0 137.0 L 830.0 136.0 L 832.0 136.0 L 833.0 135.0 L 834.0 135.0 L 835.0 134.0 L 837.0 134.0 L 838.0 133.0 L 841.0 133.0 L 842.0 132.0 L 843.0 132.0 L 844.0 131.0 L 846.0 131.0 L 847.0 130.0 L 850.0 130.0 L 851.0 129.0 L 854.0 129.0 L 855.0 128.0 L 858.0 128.0 L 859.0 127.0 L 862.0 127.0 L 863.0 126.0 L 867.0 126.0 L 868.0 125.0 L 873.0 125.0 L 874.0 124.0 L 879.0 124.0 L 880.0 123.0 L 887.0 123.0 L 888.0 122.0 L 899.0 122.0 L 900.0 121.0 L 929.0 121.0 L 930.0 122.0 L 940.0 122.0 L 941.0 123.0 L 948.0 123.0 L 949.0 124.0 L 954.0 124.0 L 955.0 125.0 L 960.0 125.0 L 961.0 126.0 L 964.0 126.0 L 965.0 127.0 L 969.0 127.0 L 970.0 128.0 L 973.0 128.0 L 974.0 129.0 L 977.0 129.0 L 978.0 130.0 L 980.0 130.0 L 981.0 131.0 L 983.0 131.0 L 984.0 132.0 L 987.0 132.0 L 988.0 133.0 L 989.0 133.0 L 990.0 134.0 L 993.0 134.0 L 994.0 135.0 L 995.0 135.0 L 996.0 136.0 L 998.0 136.0 L 999.0 137.0 L 1001.0 137.0 L 1002.0 138.0 L 1003.0 138.0 L 1004.0 139.0 L 1005.0 139.0 L 1006.0 140.0 L 1008.0 140.0 L 1009.0 141.0 L 1010.0 141.0 L 1011.0 142.0 L 1012.0 142.0 L 1013.0 143.0 L 1015.0 143.0 L 1016.0 144.0 L 1017.0 144.0 L 1018.0 145.0 L 1019.0 145.0 L 1020.0 146.0 L 1021.0 146.0 L 1022.0 147.0 L 1023.0 147.0 L 1024.0 148.0 L 1025.0 148.0 L 1026.0 149.0 L 1027.0 149.0 L 1029.0 151.0 L 1030.0 151.0 L 1031.0 152.0 L 1032.0 152.0 L 1033.0 153.0 L 1034.0 153.0 L 1036.0 155.0 L 1037.0 155.0 L 1038.0 156.0 L 1039.0 156.0 L 1041.0 158.0 L 1042.0 158.0 L 1044.0 160.0 L 1045.0 160.0 L 1047.0 162.0 L 1048.0 162.0 L 1050.0 164.0 L 1051.0 164.0 L 1053.0 166.0 L 1054.0 166.0 L 1057.0 169.0 L 1058.0 169.0 L 1062.0 173.0 L 1063.0 173.0 L 1067.0 177.0 L 1068.0 177.0 L 1077.0 186.0 L 1078.0 186.0 L 1079.0 187.0 L 1079.0 188.0 L 1080.0 188.0 L 1084.0 192.0 L 1084.0 193.0 L 1085.0 193.0 L 1086.0 194.0 L 1086.0 195.0 L 1095.0 204.0 L 1095.0 205.0 L 1100.0 210.0 L 1100.0 211.0 L 1104.0 215.0 L 1104.0 216.0 L 1106.0 218.0 L 1106.0 219.0 L 1109.0 222.0 L 1109.0 223.0 L 1111.0 225.0 L 1111.0 226.0 L 1113.0 228.0 L 1113.0 229.0 L 1115.0 231.0 L 1115.0 232.0 L 1116.0 233.0 L 1116.0 234.0 L 1118.0 236.0 L 1118.0 237.0 L 1119.0 238.0 L 1119.0 239.0 L 1121.0 241.0 L 1121.0 242.0 L 1122.0 243.0 L 1122.0 244.0 L 1123.0 245.0 L 1123.0 246.0 L 1124.0 247.0 L 1124.0 248.0 L 1125.0 249.0 L 1125.0 250.0 L 1126.0 251.0 L 1126.0 252.0 L 1127.0 253.0 L 1127.0 254.0 L 1128.0 255.0 L 1128.0 256.0 L 1129.0 257.0 L 1129.0 258.0 L 1130.0 259.0 L 1130.0 260.0 L 1131.0 261.0 L 1131.0 263.0 L 1132.0 264.0 L 1132.0 265.0 L 1133.0 266.0 L 1133.0 268.0 L 1134.0 269.0 L 1134.0 270.0 L 1135.0 271.0 L 1135.0 273.0 L 1136.0 274.0 L 1136.0 276.0 L 1137.0 277.0 L 1137.0 279.0 L 1138.0 280.0 L 1138.0 281.0 L 1139.0 282.0 L 1139.0 284.0 L 1140.0 285.0 L 1140.0 288.0 L 1141.0 289.0 L 1141.0 291.0 L 1142.0 292.0 L 1142.0 295.0 L 1143.0 296.0 L 1143.0 299.0 L 1144.0 300.0 L 1144.0 304.0 L 1145.0 305.0 L 1145.0 308.0 L 1146.0 309.0 L 1146.0 314.0 L 1147.0 315.0 L 1147.0 320.0 L 1148.0 321.0 L 1148.0 328.0 L 1149.0 329.0 L 1149.0 343.0 L 1150.0 344.0 L 1150.0 360.0 L 1149.0 361.0 L 1149.0 374.0 L 1148.0 375.0 L 1148.0 383.0 L 1147.0 384.0 L 1147.0 389.0 L 1146.0 390.0 L 1146.0 395.0 L 1145.0 396.0 L 1145.0 400.0 L 1144.0 401.0 L 1144.0 404.0 L 1143.0 405.0 L 1143.0 408.0 L 1142.0 409.0 L 1142.0 412.0 L 1141.0 413.0 L 1141.0 415.0 L 1140.0 416.0 L 1140.0 419.0 L 1139.0 420.0 L 1139.0 422.0 L 1138.0 423.0 L 1138.0 425.0 L 1137.0 426.0 L 1137.0 428.0 L 1136.0 429.0 L 1136.0 430.0 L 1135.0 431.0 L 1135.0 433.0 L 1134.0 434.0 L 1134.0 435.0 L 1133.0 436.0 L 1133.0 438.0 L 1132.0 439.0 L 1132.0 440.0 L 1131.0 441.0 L 1131.0 443.0 L 1130.0 444.0 L 1130.0 445.0 L 1129.0 446.0 L 1129.0 447.0 L 1128.0 448.0 L 1128.0 449.0 L 1127.0 450.0 L 1127.0 451.0 L 1126.0 452.0 L 1126.0 453.0 L 1125.0 454.0 L 1125.0 455.0 L 1124.0 456.0 L 1124.0 457.0 L 1123.0 458.0 L 1123.0 459.0 L 1122.0 460.0 L 1122.0 461.0 L 1121.0 462.0 L 1121.0 463.0 L 1119.0 465.0 L 1119.0 466.0 L 1118.0 467.0 L 1118.0 468.0 L 1117.0 469.0 L 1117.0 470.0 L 1115.0 472.0 L 1115.0 473.0 L 1113.0 475.0 L 1113.0 476.0 L 1111.0 478.0 L 1111.0 479.0 L 1109.0 481.0 L 1109.0 482.0 L 1107.0 484.0 L 1107.0 485.0 L 1104.0 488.0 L 1104.0 489.0 L 1100.0 493.0 L 1100.0 494.0 L 1097.0 497.0 L 1097.0 498.0 L 1090.0 505.0 L 1090.0 506.0 L 1073.0 523.0 L 1072.0 523.0 L 1067.0 528.0 L 1066.0 528.0 L 1061.0 533.0 L 1060.0 533.0 L 1057.0 536.0 L 1056.0 536.0 L 1053.0 539.0 L 1052.0 539.0 L 1050.0 541.0 L 1049.0 541.0 L 1047.0 543.0 L 1046.0 543.0 L 1044.0 545.0 L 1043.0 545.0 L 1041.0 547.0 L 1040.0 547.0 L 1038.0 549.0 L 1037.0 549.0 L 1036.0 550.0 L 1035.0 550.0 L 1033.0 552.0 L 1032.0 552.0 L 1031.0 553.0 L 1030.0 553.0 L 1029.0 554.0 L 1028.0 554.0 L 1026.0 556.0 L 1024.0 556.0 L 1023.0 557.0 L 1022.0 557.0 L 1021.0 558.0 L 1020.0 558.0 L 1019.0 559.0 L 1018.0 559.0 L 1017.0 560.0 L 1016.0 560.0 L 1015.0 561.0 L 1014.0 561.0 L 1013.0 562.0 L 1012.0 562.0 L 1011.0 563.0 L 1010.0 563.0 L 1009.0 564.0 L 1008.0 564.0 L 1007.0 565.0 L 1005.0 565.0 L 1004.0 566.0 L 1003.0 566.0 L 1002.0 567.0 L 1000.0 567.0 L 999.0 568.0 L 998.0 568.0 L 997.0 569.0 L 995.0 569.0 L 994.0 570.0 L 992.0 570.0 L 991.0 571.0 L 989.0 571.0 L 988.0 572.0 L 986.0 572.0 L 985.0 573.0 L 983.0 573.0 L 982.0 574.0 L 979.0 574.0 L 978.0 575.0 L 975.0 575.0 L 974.0 576.0 L 972.0 576.0 L 971.0 577.0 L 967.0 577.0 L 966.0 578.0 L 963.0 578.0 L 962.0 579.0 L 957.0 579.0 L 956.0 580.0 L 952.0 580.0 L 951.0 581.0 L 944.0 581.0 L 943.0 582.0 L 935.0 582.0 L 934.0 583.0 L 891.0 583.0 L 890.0 582.0 L 880.0 582.0 L 879.0 581.0 L 873.0 581.0 L 872.0 580.0 L 867.0 580.0 L 866.0 579.0 L 861.0 579.0 L 860.0 578.0 L 856.0 578.0 L 855.0 577.0 L 851.0 577.0 L 850.0 576.0 L 846.0 576.0 L 845.0 575.0 L 842.0 575.0 L 841.0 574.0 L 838.0 574.0 L 837.0 573.0 L 835.0 573.0 L 834.0 572.0 L 831.0 572.0 L 830.0 571.0 L 828.0 571.0 L 827.0 570.0 L 825.0 570.0 L 824.0 569.0 L 822.0 569.0 L 821.0 568.0 L 819.0 568.0 L 818.0 567.0 L 816.0 567.0 L 815.0 566.0 L 813.0 566.0 L 812.0 565.0 L 810.0 565.0 L 809.0 564.0 L 808.0 564.0 L 807.0 563.0 L 805.0 563.0 L 804.0 562.0 L 803.0 562.0 L 802.0 561.0 L 800.0 561.0 L 799.0 560.0 L 798.0 560.0 L 797.0 559.0 L 796.0 559.0 L 795.0 558.0 L 793.0 558.0 L 792.0 557.0 L 791.0 557.0 L 790.0 556.0 L 789.0 556.0 L 788.0 555.0 L 787.0 555.0 L 786.0 554.0 L 784.0 554.0 L 782.0 552.0 L 781.0 552.0 L 780.0 551.0 L 778.0 551.0 L 777.0 550.0 L 776.0 550.0 L 775.0 549.0 L 774.0 549.0 L 772.0 547.0 L 771.0 547.0 L 770.0 546.0 L 769.0 546.0 L 768.0 545.0 L 767.0 545.0 L 766.0 544.0 L 765.0 544.0 L 763.0 542.0 L 762.0 542.0 L 761.0 541.0 L 760.0 541.0 L 759.0 540.0 L 758.0 540.0 L 756.0 538.0 L 755.0 538.0 L 753.0 536.0 L 752.0 536.0 L 751.0 535.0 L 750.0 535.0 L 749.0 534.0 L 748.0 534.0 L 747.0 533.0 L 746.0 533.0 L 745.0 532.0 L 741.0 532.0 L 740.0 531.0 L 734.0 531.0 L 733.0 532.0 L 730.0 532.0 L 729.0 533.0 L 727.0 533.0 L 726.0 534.0 L 725.0 534.0 L 723.0 536.0 L 722.0 536.0 L 717.0 541.0 L 717.0 542.0 L 716.0 543.0 L 716.0 544.0 L 715.0 545.0 L 715.0 546.0 L 714.0 547.0 L 714.0 548.0 L 713.0 549.0 L 713.0 553.0 L 712.0 554.0 L 712.0 557.0 L 711.0 558.0 L 711.0 562.0 L 710.0 563.0 L 710.0 566.0 L 709.0 567.0 L 709.0 571.0 L 708.0 572.0 L 708.0 576.0 L 707.0 577.0 L 707.0 580.0 L 706.0 581.0 L 706.0 585.0 L 705.0 586.0 L 705.0 590.0 L 704.0 591.0 L 704.0 594.0 L 703.0 595.0 L 703.0 599.0 L 702.0 600.0 L 702.0 604.0 L 701.0 605.0 L 701.0 608.0 L 700.0 609.0 L 700.0 613.0 L 699.0 614.0 L 699.0 617.0 L 698.0 618.0 L 698.0 622.0 L 697.0 623.0 L 697.0 627.0 L 696.0 628.0 L 696.0 631.0 L 695.0 632.0 L 695.0 636.0 L 694.0 637.0 L 694.0 640.0 L 693.0 641.0 L 693.0 645.0 L 692.0 646.0 L 692.0 650.0 L 691.0 651.0 L 691.0 654.0 L 690.0 655.0 L 690.0 659.0 L 689.0 660.0 L 689.0 664.0 L 688.0 665.0 L 688.0 668.0 L 687.0 669.0 L 687.0 673.0 L 686.0 674.0 L 686.0 677.0 L 685.0 678.0 L 685.0 682.0 L 684.0 683.0 L 684.0 687.0 L 683.0 688.0 L 683.0 691.0 L 682.0 692.0 L 682.0 696.0 L 681.0 697.0 L 681.0 701.0 L 680.0 702.0 L 680.0 705.0 L 679.0 706.0 L 679.0 710.0 L 678.0 711.0 L 678.0 714.0 L 677.0 715.0 L 677.0 719.0 L 676.0 720.0 L 676.0 724.0 L 675.0 725.0 L 675.0 728.0 L 674.0 729.0 L 674.0 733.0 L 673.0 734.0 L 673.0 738.0 L 672.0 739.0 L 672.0 742.0 L 671.0 743.0 L 671.0 747.0 L 670.0 748.0 L 670.0 751.0 L 669.0 752.0 L 669.0 756.0 L 668.0 757.0 L 668.0 760.0 L 667.0 761.0 L 667.0 765.0 L 666.0 766.0 L 666.0 770.0 L 665.0 771.0 L 665.0 774.0 L 664.0 775.0 L 664.0 779.0 L 663.0 780.0 L 663.0 784.0 L 662.0 785.0 L 662.0 788.0 L 661.0 789.0 L 661.0 793.0 L 660.0 794.0 L 660.0 797.0 L 659.0 798.0 L 659.0 799.0 L 658.0 800.0 L 577.0 800.0 L 576.0 799.0 L 576.0 797.0 L 577.0 796.0 L 577.0 793.0 L 578.0 792.0 L 578.0 788.0 L 579.0 787.0 L 579.0 783.0 L 580.0 782.0 L 580.0 779.0 L 581.0 778.0 L 581.0 774.0 L 582.0 773.0 L 582.0 769.0 L 583.0 768.0 L 583.0 765.0 L 584.0 764.0 L 584.0 760.0 L 585.0 759.0 L 585.0 756.0 L 586.0 755.0 L 586.0 751.0 L 587.0 750.0 L 587.0 746.0 L 588.0 745.0 L 588.0 742.0 L 589.0 741.0 L 589.0 737.0 L 590.0 736.0 L 590.0 732.0 L 591.0 731.0 L 591.0 728.0 L 592.0 727.0 L 592.0 723.0 L 593.0 722.0 L 593.0 719.0 L 594.0 718.0 L 594.0 714.0 L 595.0 713.0 L 595.0 709.0 L 596.0 708.0 L 596.0 705.0 L 597.0 704.0 L 597.0 700.0 L 598.0 699.0 L 598.0 695.0 L 599.0 694.0 L 599.0 691.0 L 600.0 690.0 L 600.0 686.0 L 601.0 685.0 L 601.0 682.0 L 602.0 681.0 L 602.0 677.0 L 603.0 676.0 L 603.0 673.0 L 604.0 672.0 L 604.0 668.0 L 605.0 667.0 L 605.0 663.0 L 606.0 662.0 L 606.0 659.0 L 607.0 658.0 L 607.0 654.0 L 608.0 653.0 L 608.0 649.0 L 609.0 648.0 L 609.0 645.0 L 610.0 644.0 L 610.0 640.0 L 611.0 639.0 L 611.0 636.0 L 612.0 635.0 L 612.0 631.0 L 613.0 630.0 L 613.0 626.0 L 614.0 625.0 L 614.0 622.0 L 615.0 621.0 L 615.0 617.0 L 616.0 616.0 L 616.0 612.0 L 617.0 611.0 L 617.0 608.0 L 618.0 607.0 L 618.0 603.0 L 619.0 602.0 L 619.0 599.0 L 620.0 598.0 L 620.0 594.0 L 621.0 593.0 L 621.0 589.0 L 622.0 588.0 L 622.0 585.0 L 623.0 584.0 L 623.0 580.0 L 624.0 579.0 L 624.0 576.0 L 625.0 575.0 L 625.0 571.0 L 626.0 570.0 L 626.0 567.0 L 627.0 566.0 L 627.0 562.0 L 628.0 561.0 L 628.0 557.0 L 629.0 556.0 L 629.0 553.0 L 630.0 552.0 L 630.0 548.0 L 631.0 547.0 L 631.0 543.0 L 632.0 542.0 L 632.0 539.0 L 633.0 538.0 L 633.0 534.0 L 634.0 533.0 L 634.0 529.0 L 635.0 528.0 L 635.0 525.0 L 636.0 524.0 L 636.0 520.0 L 637.0 519.0 L 637.0 516.0 L 638.0 515.0 L 638.0 511.0 L 639.0 510.0 L 639.0 507.0 L 640.0 506.0 L 640.0 502.0 L 641.0 501.0 L 641.0 497.0 L 642.0 496.0 L 642.0 492.0 L 643.0 491.0 L 643.0 488.0 L 644.0 487.0 L 644.0 484.0 L 645.0 483.0 L 645.0 478.0 L 646.0 477.0 L 646.0 474.0 L 647.0 473.0 L 647.0 470.0 L 648.0 469.0 L 648.0 465.0 L 649.0 464.0 L 649.0 460.0 L 650.0 459.0 L 650.0 449.0 L 649.0 448.0 L 649.0 446.0 L 648.0 445.0 L 648.0 444.0 L 647.0 443.0 L 647.0 442.0 L 646.0 441.0 L 646.0 440.0 L 642.0 436.0 L 642.0 435.0 L 639.0 432.0 L 639.0 431.0 L 635.0 427.0 L 635.0 426.0 L 632.0 423.0 L 632.0 422.0 L 629.0 419.0 L 629.0 418.0 L 626.0 415.0 L 626.0 414.0 L 623.0 411.0 L 623.0 410.0 L 620.0 407.0 L 620.0 406.0 L 618.0 404.0 L 618.0 403.0 L 615.0 400.0 L 615.0 399.0 L 614.0 398.0 L 614.0 397.0 L 611.0 394.0 L 611.0 393.0 L 609.0 391.0 L 609.0 390.0 L 607.0 388.0 L 607.0 387.0 L 605.0 385.0 L 605.0 384.0 L 603.0 382.0 L 603.0 381.0 L 602.0 380.0 L 602.0 379.0 L 600.0 377.0 L 600.0 376.0 L 598.0 374.0 L 598.0 373.0 L 597.0 372.0 L 597.0 371.0 L 595.0 369.0 L 595.0 368.0 L 593.0 366.0 L 593.0 365.0 L 592.0 364.0 L 592.0 363.0 L 590.0 361.0 L 590.0 360.0 L 589.0 359.0 L 589.0 358.0 L 587.0 356.0 L 587.0 355.0 L 586.0 354.0 L 586.0 353.0 L 584.0 351.0 L 584.0 350.0 L 583.0 349.0 L 583.0 348.0 L 582.0 347.0 L 582.0 346.0 L 580.0 344.0 L 580.0 343.0 L 579.0 342.0 L 579.0 341.0 L 578.0 340.0 L 578.0 339.0 L 577.0 338.0 L 577.0 337.0 L 575.0 335.0 L 575.0 334.0 L 574.0 333.0 L 574.0 332.0 L 573.0 331.0 L 573.0 330.0 L 572.0 329.0 L 572.0 328.0 L 571.0 327.0 L 571.0 326.0 L 569.0 324.0 L 569.0 323.0 L 568.0 322.0 L 568.0 321.0 L 567.0 320.0 L 567.0 319.0 L 566.0 318.0 L 566.0 317.0 L 565.0 316.0 L 565.0 315.0 L 564.0 314.0 L 564.0 313.0 L 563.0 312.0 L 563.0 311.0 L 562.0 310.0 L 562.0 309.0 L 561.0 308.0 L 561.0 307.0 L 560.0 306.0 L 560.0 305.0 L 559.0 304.0 L 559.0 303.0 L 558.0 302.0 L 558.0 301.0 L 557.0 300.0 L 557.0 299.0 L 555.0 297.0 L 555.0 295.0 L 554.0 294.0 L 554.0 293.0 L 553.0 292.0 L 553.0 291.0 L 551.0 289.0 L 551.0 288.0 L 546.0 283.0 L 545.0 283.0 L 543.0 281.0 L 542.0 281.0 L 541.0 280.0 L 539.0 280.0 L 538.0 279.0 L 536.0 279.0 L 535.0 278.0 L 527.0 278.0 L 526.0 279.0 L 523.0 279.0 L 522.0 280.0 L 521.0 280.0 L 520.0 281.0 L 519.0 281.0 L 518.0 282.0 L 517.0 282.0 L 515.0 284.0 L 514.0 284.0 L 511.0 287.0 L 511.0 288.0 L 509.0 290.0 L 509.0 291.0 L 508.0 292.0 L 508.0 294.0 L 507.0 295.0 L 507.0 297.0 L 506.0 298.0 L 506.0 371.0 L 505.0 372.0 L 505.0 383.0 L 504.0 384.0 L 504.0 391.0 L 503.0 392.0 L 503.0 397.0 L 502.0 398.0 L 502.0 403.0 L 501.0 404.0 L 501.0 407.0 L 500.0 408.0 L 500.0 411.0 L 499.0 412.0 L 499.0 415.0 L 498.0 416.0 L 498.0 419.0 L 497.0 420.0 L 497.0 422.0 L 496.0 423.0 L 496.0 425.0 L 495.0 426.0 L 495.0 428.0 L 494.0 429.0 L 494.0 431.0 L 493.0 432.0 L 493.0 434.0 L 492.0 435.0 L 492.0 437.0 L 491.0 438.0 L 491.0 439.0 L 490.0 440.0 L 490.0 442.0 L 489.0 443.0 L 489.0 444.0 L 488.0 445.0 L 488.0 446.0 L 487.0 447.0 L 487.0 449.0 L 486.0 450.0 L 486.0 451.0 L 485.0 452.0 L 485.0 453.0 L 484.0 454.0 L 484.0 455.0 L 483.0 456.0 L 483.0 457.0 L 482.0 458.0 L 482.0 459.0 L 481.0 460.0 L 481.0 461.0 L 480.0 462.0 L 480.0 463.0 L 479.0 464.0 L 479.0 465.0 L 478.0 466.0 L 478.0 467.0 L 476.0 469.0 L 476.0 470.0 L 475.0 471.0 L 475.0 472.0 L 473.0 474.0 L 473.0 475.0 L 472.0 476.0 L 472.0 477.0 L 470.0 479.0 L 470.0 480.0 L 468.0 482.0 L 468.0 483.0 L 466.0 485.0 L 466.0 486.0 L 463.0 489.0 L 463.0 490.0 L 461.0 492.0 L 461.0 493.0 L 456.0 498.0 L 456.0 499.0 L 452.0 503.0 L 452.0 504.0 L 428.0 528.0 L 427.0 528.0 L 422.0 533.0 L 421.0 533.0 L 418.0 536.0 L 417.0 536.0 L 414.0 539.0 L 413.0 539.0 L 410.0 542.0 L 409.0 542.0 L 407.0 544.0 L 406.0 544.0 L 404.0 546.0 L 403.0 546.0 L 401.0 548.0 L 400.0 548.0 L 399.0 549.0 L 398.0 549.0 L 396.0 551.0 L 395.0 551.0 L 394.0 552.0 L 393.0 552.0 L 391.0 554.0 L 390.0 554.0 L 389.0 555.0 L 388.0 555.0 L 387.0 556.0 L 386.0 556.0 L 385.0 557.0 L 384.0 557.0 L 383.0 558.0 L 382.0 558.0 L 381.0 559.0 L 380.0 559.0 L 379.0 560.0 L 378.0 560.0 L 377.0 561.0 L 376.0 561.0 L 375.0 562.0 L 374.0 562.0 L 373.0 563.0 L 372.0 563.0 L 371.0 564.0 L 370.0 564.0 L 369.0 565.0 L 367.0 565.0 L 366.0 566.0 L 365.0 566.0 L 364.0 567.0 L 362.0 567.0 L 361.0 568.0 L 360.0 568.0 L 359.0 569.0 L 357.0 569.0 L 356.0 570.0 L 354.0 570.0 L 353.0 571.0 L 351.0 571.0 L 350.0 572.0 L 348.0 572.0 L 347.0 573.0 L 345.0 573.0 L 344.0 574.0 L 342.0 574.0 L 341.0 575.0 L 338.0 575.0 L 337.0 576.0 L 334.0 576.0 L 333.0 577.0 L 330.0 577.0 L 329.0 578.0 L 326.0 578.0 L 325.0 579.0 L 320.0 579.0 L 319.0 580.0 L 314.0 580.0 L 313.0 581.0 L 307.0 581.0 L 306.0 582.0 L 298.0 582.0 L 297.0 583.0 L 258.0 583.0 L 257.0 582.0 L 249.0 582.0 L 248.0 581.0 L 242.0 581.0 L 241.0 580.0 L 236.0 580.0 L 235.0 579.0 L 231.0 579.0 L 230.0 578.0 L 226.0 578.0 L 225.0 577.0 L 222.0 577.0 L 221.0 576.0 L 218.0 576.0 L 217.0 575.0 L 215.0 575.0 L 214.0 574.0 L 211.0 574.0 L 210.0 573.0 L 208.0 573.0 L 207.0 572.0 L 205.0 572.0 L 204.0 571.0 L 202.0 571.0 L 201.0 570.0 L 199.0 570.0 L 198.0 569.0 L 196.0 569.0 L 195.0 568.0 L 194.0 568.0 L 193.0 567.0 L 191.0 567.0 L 190.0 566.0 L 189.0 566.0 L 188.0 565.0 L 187.0 565.0 L 186.0 564.0 L 184.0 564.0 L 183.0 563.0 L 182.0 563.0 L 181.0 562.0 L 180.0 562.0 L 179.0 561.0 L 178.0 561.0 L 177.0 560.0 L 176.0 560.0 L 175.0 559.0 L 174.0 559.0 L 173.0 558.0 L 172.0 558.0 L 171.0 557.0 L 170.0 557.0 L 169.0 556.0 L 168.0 556.0 L 167.0 555.0 L 166.0 555.0 L 164.0 553.0 L 163.0 553.0 L 162.0 552.0 L 161.0 552.0 L 160.0 551.0 L 159.0 551.0 L 157.0 549.0 L 156.0 549.0 L 154.0 547.0 L 153.0 547.0 L 152.0 546.0 L 151.0 546.0 L 148.0 543.0 L 147.0 543.0 L 145.0 541.0 L 144.0 541.0 L 142.0 539.0 L 141.0 539.0 L 137.0 535.0 L 136.0 535.0 L 133.0 532.0 L 132.0 532.0 L 126.0 526.0 L 125.0 526.0 L 105.0 506.0 L 105.0 505.0 L 99.0 499.0 L 99.0 498.0 L 96.0 495.0 L 96.0 494.0 L 92.0 490.0 L 92.0 489.0 L 90.0 487.0 L 90.0 486.0 L 88.0 484.0 L 88.0 483.0 L 86.0 481.0 L 86.0 480.0 L 84.0 478.0 L 84.0 477.0 L 82.0 475.0 L 82.0 474.0 L 80.0 472.0 L 80.0 471.0 L 79.0 470.0 L 79.0 469.0 L 78.0 468.0 L 78.0 467.0 L 77.0 466.0 L 77.0 465.0 L 75.0 463.0 L 75.0 462.0 L 74.0 461.0 L 74.0 460.0 L 73.0 459.0 L 73.0 458.0 L 72.0 457.0 L 72.0 456.0 L 71.0 455.0 L 71.0 454.0 L 70.0 453.0 L 70.0 452.0 L 69.0 451.0 L 69.0 449.0 L 68.0 448.0 L 68.0 447.0 L 67.0 446.0 L 67.0 445.0 L 66.0 444.0 L 66.0 442.0 L 65.0 441.0 L 65.0 440.0 L 64.0 439.0 L 64.0 437.0 L 63.0 436.0 L 63.0 435.0 L 62.0 434.0 L 62.0 432.0 L 61.0 431.0 L 61.0 429.0 L 60.0 428.0 L 60.0 426.0 L 59.0 425.0 L 59.0 422.0 L 58.0 421.0 L 58.0 419.0 L 57.0 418.0 L 57.0 415.0 L 56.0 414.0 L 56.0 411.0 L 55.0 410.0 L 55.0 407.0 L 54.0 406.0 L 54.0 403.0 L 53.0 402.0 L 53.0 397.0 L 52.0 396.0 L 52.0 390.0 L 51.0 389.0 L 51.0 383.0 L 50.0 382.0 L 50.0 367.0 L 49.0 366.0 Z" fill="#000" fill-rule="evenodd"/>
</svg>