<svg xmlns="http://www.w3.org/2000/svg" viewBox="0 0 96 96" fill="none" role="img" aria-label="Upwork icon">
  <g fill="currentColor" fill-rule="evenodd">
    <path d="M 67,32 L 61,38 L 58,49 L 61,53 L 67,56 L 76,56 L 80,54 L 84,48 L 84,39 L 77,32 Z"/>
    <path d="M 72,37 L 75,38 L 78,41 L 78,46 L 74,50 L 69,50 L 65,47 L 66,42 Z"/>
    <path d="M 0,16 L 0,51 L 3,57 L 9,63 L 15,66 L 25,67 L 36,63 L 44,53 L 45,57 L 40,79 L 41,83 L 56,83 L 59,73 L 59,69 L 61,65 L 69,67 L 75,67 L 82,65 L 87,62 L 94,53 L 95,38 L 92,31 L 86,25 L 76,21 L 68,21 L 57,26 L 52,32 L 50,30 L 44,16 L 29,16 L 28,17 L 28,46 L 25,49 L 21,50 L 17,47 L 17,17 L 16,16 Z"/>
    <path d="M 5,22 L 6,21 L 11,22 L 11,48 L 12,51 L 17,55 L 21,56 L 28,55 L 33,50 L 34,47 L 34,22 L 35,21 L 40,22 L 48,40 L 51,43 L 54,43 L 59,33 L 66,28 L 75,27 L 82,30 L 87,35 L 89,39 L 89,49 L 83,57 L 74,61 L 70,61 L 60,57 L 56,57 L 52,72 L 52,76 L 50,78 L 48,78 L 47,75 L 51,58 L 51,51 L 47,46 L 45,41 L 41,40 L 39,42 L 39,48 L 36,54 L 33,57 L 24,61 L 17,60 L 13,58 L 8,53 L 6,49 L 5,44 Z"/>
  </g>
</svg>
