<svg xmlns="http://www.w3.org/2000/svg" width="640" height="640" viewBox="0 0 640 640">
  <defs>
    <path id="gemini-shape" d="M 320.00 613.50 C 317.17 613.50, 313.08 611.75, 311.00 610.50 C 308.92 609.25, 309.42 610.92, 307.50 606.00 C 305.58 601.08, 300.83 585.67, 299.50 581.00 C 298.17 576.33, 299.83 579.00, 299.50 578.00 C 299.17 577.00, 299.33 579.83, 297.50 575.00 C 295.67 570.17, 292.67 558.83, 288.50 549.00 C 284.33 539.17, 277.67 525.67, 272.50 516.00 C 267.33 506.33, 262.33 498.50, 257.50 491.00 C 252.67 483.50, 248.50 477.67, 243.50 471.00 C 238.50 464.33, 235.25 459.58, 227.50 451.00 C 219.75 442.42, 206.92 428.75, 197.00 419.50 C 187.08 410.25, 179.17 403.67, 168.00 395.50 C 156.83 387.33, 141.17 377.17, 130.00 370.50 C 118.83 363.83, 109.33 359.50, 101.00 355.50 C 92.67 351.50, 88.33 349.67, 80.00 346.50 C 71.67 343.33, 58.67 338.83, 51.00 336.50 C 43.33 334.17, 37.75 333.92, 34.00 332.50 C 30.25 331.08, 29.92 329.92, 28.50 328.00 C 27.08 326.08, 26.00 322.67, 25.50 321.00 C 25.00 319.33, 25.00 319.67, 25.50 318.00 C 26.00 316.33, 27.08 312.92, 28.50 311.00 C 29.92 309.08, 30.25 307.92, 34.00 306.50 C 37.75 305.08, 41.33 305.67, 51.00 302.50 C 60.67 299.33, 80.33 292.33, 92.00 287.50 C 103.67 282.67, 111.67 278.50, 121.00 273.50 C 130.33 268.50, 140.83 262.00, 148.00 257.50 C 155.17 253.00, 157.33 251.50, 164.00 246.50 C 170.67 241.50, 178.75 235.75, 188.00 227.50 C 197.25 219.25, 209.75 207.58, 219.50 197.00 C 229.25 186.42, 238.33 175.17, 246.50 164.00 C 254.67 152.83, 261.17 143.17, 268.50 130.00 C 275.83 116.83, 284.67 98.67, 290.50 85.00 C 296.33 71.33, 300.83 56.33, 303.50 48.00 C 306.17 39.67, 305.50 38.00, 306.50 35.00 C 307.50 32.00, 308.08 31.42, 309.50 30.00 C 310.92 28.58, 312.58 27.08, 315.00 26.50 C 317.42 25.92, 321.67 26.00, 324.00 26.50 C 326.33 27.00, 327.75 28.42, 329.00 29.50 C 330.25 30.58, 329.75 28.25, 331.50 33.00 C 333.25 37.75, 338.17 53.33, 339.50 58.00 C 340.83 62.67, 339.17 60.00, 339.50 61.00 C 339.83 62.00, 339.67 59.17, 341.50 64.00 C 343.33 68.83, 346.17 79.83, 350.50 90.00 C 354.83 100.17, 363.00 116.33, 367.50 125.00 C 372.00 133.67, 373.00 135.00, 377.50 142.00 C 382.00 149.00, 389.00 159.50, 394.50 167.00 C 400.00 174.50, 402.08 177.75, 410.50 187.00 C 418.92 196.25, 434.08 212.42, 445.00 222.50 C 455.92 232.58, 464.83 239.50, 476.00 247.50 C 487.17 255.50, 502.50 264.83, 512.00 270.50 C 521.50 276.17, 524.50 277.50, 533.00 281.50 C 541.50 285.50, 553.50 290.83, 563.00 294.50 C 572.50 298.17, 583.17 301.50, 590.00 303.50 C 596.83 305.50, 600.42 304.92, 604.00 306.50 C 607.58 308.08, 610.08 311.42, 611.50 313.00 C 612.92 314.58, 612.50 313.83, 612.50 316.00 C 612.50 318.17, 612.58 323.42, 611.50 326.00 C 610.42 328.58, 613.58 328.58, 606.00 331.50 C 598.42 334.42, 576.33 340.00, 566.00 343.50 C 555.67 347.00, 553.00 348.33, 544.00 352.50 C 535.00 356.67, 521.17 363.50, 512.00 368.50 C 502.83 373.50, 499.00 375.50, 489.00 382.50 C 479.00 389.50, 464.08 400.08, 452.00 410.50 C 439.92 420.92, 426.58 434.08, 416.50 445.00 C 406.42 455.92, 399.00 465.67, 391.50 476.00 C 384.00 486.33, 377.83 496.00, 371.50 507.00 C 365.17 518.00, 357.33 533.83, 353.50 542.00 C 349.67 550.17, 349.83 552.83, 348.50 556.00 C 347.17 559.17, 347.17 556.83, 345.50 561.00 C 343.83 565.17, 340.67 573.83, 338.50 581.00 C 336.33 588.17, 334.25 599.08, 332.50 604.00 C 330.75 608.92, 330.08 608.92, 328.00 610.50 C 325.92 612.08, 322.83 613.50, 320.00 613.50 Z"/>
    <clipPath id="clip"><use href="#gemini-shape"/></clipPath>

    <linearGradient id="baseBlue" x1="0%" y1="0%" x2="100%" y2="100%">
      <stop offset="0%" stop-color="#4487f6"/>
      <stop offset="100%" stop-color="#3b82f6"/>
    </linearGradient>

    <radialGradient id="redGlow" cx="50%" cy="5%" r="70%">
      <stop offset="0%" stop-color="#ff4b4b" stop-opacity="1"/>
      <stop offset="55%" stop-color="#ff4b4b" stop-opacity="0.75"/>
      <stop offset="100%" stop-color="#ff4b4b" stop-opacity="0"/>
    </radialGradient>

    <radialGradient id="yellowGlow" cx="2%" cy="50%" r="62%">
      <stop offset="0%" stop-color="#ffd11a" stop-opacity="1"/>
      <stop offset="55%" stop-color="#ffd11a" stop-opacity="0.95"/>
      <stop offset="100%" stop-color="#ffd11a" stop-opacity="0"/>
    </radialGradient>

    <radialGradient id="greenGlow" cx="50%" cy="98%" r="62%">
      <stop offset="0%" stop-color="#00c853" stop-opacity="1"/>
      <stop offset="55%" stop-color="#00c853" stop-opacity="0.95"/>
      <stop offset="100%" stop-color="#00c853" stop-opacity="0"/>
    </radialGradient>

    <radialGradient id="violetBlend" cx="37%" cy="36%" r="58%">
      <stop offset="0%" stop-color="#a855f7" stop-opacity="0.72"/>
      <stop offset="100%" stop-color="#a855f7" stop-opacity="0"/>
    </radialGradient>
  </defs>

  <use href="#gemini-shape" fill="url(#baseBlue)"/>
  <g clip-path="url(#clip)">
    <rect width="640" height="640" fill="url(#baseBlue)"/>
    <rect width="640" height="640" fill="url(#redGlow)"/>
    <rect width="640" height="640" fill="url(#yellowGlow)"/>
    <rect width="640" height="640" fill="url(#greenGlow)"/>
    <rect width="640" height="640" fill="url(#violetBlend)"/>
  </g>
</svg>