<svg xmlns="http://www.w3.org/2000/svg" viewBox="0 0 64 64"><defs><linearGradient id="g" x1="0" x2="1"><stop offset="0" stop-color="#C7461F"/><stop offset="1" stop-color="#F26B36"/></linearGradient></defs><path d="M18 8h25l9 9v39H18z" fill="url(#g)"/><path d="M43 8v10h10" fill="#FF8C59"/><circle cx="40.5" cy="30" r="8.5" fill="#fff" opacity=".95"/><path d="M40.5 21.5a8.5 8.5 0 0 1 8.5 8.5h-8.5z" fill="#F26B36"/><path d="M8 18h20v28H8z" rx="3" fill="#B7472A"/><path d="M14 24h5.4c3.7 0 5.9 1.8 5.9 5s-2.4 5.1-6.2 5.1H17v6h-3zm3 2.7v4.9h2.1c2 0 3.2-.8 3.2-2.5 0-1.6-1.1-2.4-3.1-2.4z" fill="#fff"/></svg>