<svg xmlns="http://www.w3.org/2000/svg" viewBox="0 0 96 96" width="96" height="96">
  <path d="M 1 16 L 0 17 L 0 18 L 0 19 L 0 20 L 0 21 L 0 22 L 0 23 L 0 24 L 0 25 L 0 26 L 0 27 L 0 28 L 0 29 L 0 30 L 0 31 L 0 32 L 0 33 L 0 34 L 0 35 L 0 36 L 0 37 L 0 38 L 0 39 L 0 40 L 0 41 L 0 42 L 0 43 L 0 44 L 0 45 L 0 46 L 0 47 L 0 48 L 0 49 L 1 50 L 1 51 L 1 52 L 2 53 L 2 54 L 3 55 L 3 56 L 4 57 L 5 58 L 6 59 L 7 60 L 8 61 L 9 62 L 10 63 L 11 63 L 12 64 L 13 64 L 14 65 L 15 65 L 16 65 L 17 66 L 18 66 L 19 66 L 20 66 L 21 66 L 22 66 L 23 66 L 24 66 L 25 66 L 26 66 L 27 66 L 28 65 L 29 65 L 30 65 L 31 64 L 32 64 L 33 64 L 34 63 L 35 62 L 36 62 L 37 61 L 38 60 L 39 59 L 40 58 L 41 57 L 41 56 L 42 55 L 42 54 L 43 53 L 44 52 L 45 53 L 46 54 L 46 55 L 45 56 L 45 57 L 45 58 L 45 59 L 45 60 L 44 61 L 44 62 L 44 63 L 44 64 L 44 65 L 43 66 L 43 67 L 43 68 L 43 69 L 43 70 L 42 71 L 42 72 L 42 73 L 42 74 L 42 75 L 42 76 L 41 77 L 41 78 L 41 79 L 41 80 L 41 81 L 41 82 L 42 83 L 43 83 L 44 83 L 45 83 L 46 83 L 47 83 L 48 83 L 49 83 L 50 83 L 51 83 L 52 83 L 53 83 L 54 83 L 55 83 L 56 82 L 56 81 L 56 80 L 57 79 L 57 78 L 57 77 L 57 76 L 58 75 L 58 74 L 58 73 L 58 72 L 58 71 L 59 70 L 59 69 L 59 68 L 59 67 L 59 66 L 60 65 L 61 64 L 62 64 L 63 65 L 64 65 L 65 65 L 66 66 L 67 66 L 68 66 L 69 66 L 70 66 L 71 66 L 72 66 L 73 66 L 74 66 L 75 66 L 76 66 L 77 66 L 78 65 L 79 65 L 80 65 L 81 64 L 82 64 L 83 64 L 84 63 L 85 62 L 86 62 L 87 61 L 88 60 L 89 59 L 90 58 L 91 57 L 91 56 L 92 55 L 93 54 L 93 53 L 93 52 L 94 51 L 94 50 L 94 49 L 95 48 L 95 47 L 95 46 L 95 45 L 95 44 L 95 43 L 95 42 L 95 41 L 95 40 L 94 39 L 94 38 L 94 37 L 94 36 L 93 35 L 93 34 L 92 33 L 92 32 L 91 31 L 90 30 L 89 29 L 88 28 L 87 27 L 86 26 L 85 25 L 84 25 L 83 24 L 82 24 L 81 23 L 80 23 L 79 23 L 78 22 L 77 22 L 76 22 L 75 22 L 74 22 L 73 22 L 72 22 L 71 22 L 70 22 L 69 22 L 68 22 L 67 22 L 66 22 L 65 23 L 64 23 L 63 23 L 62 24 L 61 24 L 60 25 L 59 26 L 58 26 L 57 27 L 56 28 L 55 29 L 54 30 L 54 31 L 53 32 L 52 33 L 51 33 L 50 32 L 50 31 L 49 30 L 49 29 L 48 28 L 48 27 L 48 26 L 47 25 L 47 24 L 46 23 L 46 22 L 46 21 L 45 20 L 45 19 L 45 18 L 44 17 L 43 16 L 42 16 L 41 16 L 40 16 L 39 16 L 38 16 L 37 16 L 36 16 L 35 16 L 34 16 L 33 16 L 32 16 L 31 16 L 30 16 L 29 17 L 28 18 L 28 19 L 28 20 L 28 21 L 28 22 L 28 23 L 28 24 L 28 25 L 28 26 L 28 27 L 28 28 L 28 29 L 28 30 L 28 31 L 28 32 L 28 33 L 28 34 L 28 35 L 28 36 L 28 37 L 28 38 L 28 39 L 28 40 L 28 41 L 28 42 L 28 43 L 28 44 L 28 45 L 28 46 L 28 47 L 27 48 L 26 49 L 25 50 L 24 50 L 23 50 L 22 50 L 21 50 L 20 50 L 19 49 L 18 49 L 17 48 L 17 47 L 16 46 L 16 45 L 16 44 L 16 43 L 16 42 L 16 41 L 16 40 L 16 39 L 16 38 L 16 37 L 16 36 L 16 35 L 16 34 L 16 33 L 16 32 L 16 31 L 16 30 L 16 29 L 16 28 L 16 27 L 16 26 L 16 25 L 16 24 L 16 23 L 16 22 L 16 21 L 16 20 L 16 19 L 16 18 L 16 17 L 15 16 L 14 16 L 13 16 L 12 16 L 11 16 L 10 16 L 9 16 L 8 16 L 7 16 L 6 16 L 5 16 L 4 16 L 3 16 L 2 16 Z M 5 22 L 6 21 L 7 21 L 8 21 L 9 21 L 10 21 L 11 22 L 11 23 L 11 24 L 11 25 L 11 26 L 11 27 L 11 28 L 11 29 L 11 30 L 11 31 L 11 32 L 11 33 L 11 34 L 11 35 L 11 36 L 11 37 L 11 38 L 11 39 L 11 40 L 11 41 L 11 42 L 11 43 L 11 44 L 11 45 L 11 46 L 12 47 L 12 48 L 12 49 L 13 50 L 13 51 L 14 52 L 15 53 L 16 54 L 17 54 L 18 54 L 19 55 L 20 55 L 21 55 L 22 55 L 23 55 L 24 55 L 25 55 L 26 55 L 27 54 L 28 54 L 29 53 L 30 53 L 31 52 L 31 51 L 32 50 L 32 49 L 33 48 L 33 47 L 33 46 L 33 45 L 33 44 L 33 43 L 33 42 L 33 41 L 33 40 L 33 39 L 33 38 L 33 37 L 33 36 L 33 35 L 33 34 L 33 33 L 33 32 L 33 31 L 33 30 L 33 29 L 33 28 L 33 27 L 33 26 L 33 25 L 33 24 L 33 23 L 33 22 L 34 21 L 35 21 L 36 21 L 37 21 L 38 21 L 39 21 L 40 21 L 41 22 L 41 23 L 41 24 L 42 25 L 42 26 L 42 27 L 43 28 L 43 29 L 44 30 L 44 31 L 45 32 L 45 33 L 46 34 L 46 35 L 47 36 L 47 37 L 48 38 L 49 39 L 49 40 L 50 41 L 51 42 L 52 42 L 53 42 L 54 42 L 54 41 L 55 40 L 55 39 L 56 38 L 56 37 L 57 36 L 57 35 L 58 34 L 59 33 L 60 32 L 61 31 L 62 30 L 63 29 L 64 29 L 65 28 L 66 28 L 67 27 L 68 27 L 69 27 L 70 27 L 71 27 L 72 27 L 73 27 L 74 27 L 75 27 L 76 27 L 77 27 L 78 28 L 79 28 L 80 28 L 81 29 L 82 30 L 83 30 L 84 31 L 85 32 L 86 33 L 87 34 L 87 35 L 88 36 L 88 37 L 89 38 L 89 39 L 90 40 L 90 41 L 90 42 L 90 43 L 90 44 L 90 45 L 90 46 L 90 47 L 89 48 L 89 49 L 89 50 L 88 51 L 88 52 L 87 53 L 86 54 L 86 55 L 85 56 L 84 57 L 83 57 L 82 58 L 81 59 L 80 59 L 79 60 L 78 60 L 77 61 L 76 61 L 75 61 L 74 61 L 73 61 L 72 61 L 71 61 L 70 61 L 69 61 L 68 61 L 67 61 L 66 60 L 65 60 L 64 60 L 63 59 L 62 59 L 61 58 L 60 58 L 59 57 L 58 57 L 57 58 L 56 58 L 56 59 L 56 60 L 55 61 L 55 62 L 55 63 L 55 64 L 55 65 L 54 66 L 54 67 L 54 68 L 54 69 L 53 70 L 53 71 L 53 72 L 53 73 L 53 74 L 52 75 L 52 76 L 52 77 L 51 78 L 50 78 L 49 78 L 48 78 L 47 78 L 46 77 L 47 76 L 47 75 L 47 74 L 47 73 L 47 72 L 48 71 L 48 70 L 48 69 L 48 68 L 48 67 L 49 66 L 49 65 L 49 64 L 49 63 L 49 62 L 50 61 L 50 60 L 50 59 L 50 58 L 50 57 L 50 56 L 51 55 L 51 54 L 51 53 L 51 52 L 50 51 L 50 50 L 49 49 L 48 48 L 47 47 L 47 46 L 46 45 L 45 44 L 45 43 L 44 42 L 44 41 L 43 41 L 42 41 L 41 41 L 40 42 L 40 43 L 40 44 L 40 45 L 40 46 L 39 47 L 39 48 L 39 49 L 39 50 L 38 51 L 38 52 L 37 53 L 36 54 L 36 55 L 35 56 L 34 57 L 33 57 L 32 58 L 31 59 L 30 59 L 29 60 L 28 60 L 27 61 L 26 61 L 25 61 L 24 61 L 23 61 L 22 61 L 21 61 L 20 61 L 19 61 L 18 61 L 17 60 L 16 60 L 15 60 L 14 59 L 13 58 L 12 58 L 11 57 L 10 56 L 9 55 L 8 54 L 8 53 L 7 52 L 6 51 L 6 50 L 6 49 L 5 48 L 5 47 L 5 46 L 5 45 L 5 44 L 5 43 L 5 42 L 5 41 L 5 40 L 5 39 L 5 38 L 5 37 L 5 36 L 5 35 L 5 34 L 5 33 L 5 32 L 5 31 L 5 30 L 5 29 L 5 28 L 5 27 L 5 26 L 5 25 L 5 24 L 5 23 Z M 69 32 L 68 33 L 67 33 L 66 34 L 65 34 L 64 35 L 63 36 L 63 37 L 62 38 L 62 39 L 61 40 L 61 41 L 60 42 L 60 43 L 60 44 L 60 45 L 59 46 L 59 47 L 59 48 L 59 49 L 59 50 L 60 51 L 61 52 L 62 53 L 63 53 L 64 54 L 65 54 L 66 55 L 67 55 L 68 55 L 69 55 L 70 56 L 71 56 L 72 56 L 73 56 L 74 56 L 75 55 L 76 55 L 77 55 L 78 54 L 79 54 L 80 53 L 81 52 L 82 51 L 82 50 L 83 49 L 83 48 L 83 47 L 84 46 L 84 45 L 84 44 L 84 43 L 84 42 L 84 41 L 83 40 L 83 39 L 82 38 L 82 37 L 81 36 L 80 35 L 79 34 L 78 34 L 77 33 L 76 33 L 75 32 L 74 32 L 73 32 L 72 32 L 71 32 L 70 32 Z M 69 38 L 70 37 L 71 37 L 72 37 L 73 37 L 74 37 L 75 38 L 76 38 L 77 39 L 78 40 L 78 41 L 79 42 L 79 43 L 79 44 L 79 45 L 79 46 L 78 47 L 77 48 L 76 49 L 75 50 L 74 50 L 73 51 L 72 51 L 71 51 L 70 51 L 69 50 L 68 50 L 67 50 L 66 49 L 65 48 L 64 47 L 65 46 L 65 45 L 65 44 L 65 43 L 66 42 L 66 41 L 67 40 L 68 39 Z" fill="#000" fill-rule="evenodd"/>
</svg>